<?xml version="1.0" encoding="utf-8"?>
<!-- Generator: Adobe Illustrator 22.0.1, SVG Export Plug-In . SVG Version: 6.00 Build 0)  -->
<svg version="1.1"
	 id="svg2" inkscape:export-filename="D:\Documents\GitHub\Hyperocto\src\icons\19.png" inkscape:export-xdpi="14.25" inkscape:export-ydpi="14.25" inkscape:version="0.91 r13725" sodipodi:docname="icon_inkscape_small.svg" xmlns:cc="http://creativecommons.org/ns#" xmlns:dc="http://purl.org/dc/elements/1.1/" xmlns:inkscape="http://www.inkscape.org/namespaces/inkscape" xmlns:rdf="http://www.w3.org/1999/02/22-rdf-syntax-ns#" xmlns:sodipodi="http://sodipodi.sourceforge.net/DTD/sodipodi-0.dtd" xmlns:svg="http://www.w3.org/2000/svg"
	 xmlns="http://www.w3.org/2000/svg" xmlns:xlink="http://www.w3.org/1999/xlink" x="0px" y="0px" viewBox="0 0 96 96"
	 style="enable-background:new 0 0 96 96;" xml:space="preserve">
<style type="text/css">
	.st0{fill:#4080FF;}
	.st1{fill:url(#path4229_1_);}
</style>
<sodipodi:namedview  bordercolor="#666666" borderopacity="1.0" fit-margin-bottom="0" fit-margin-left="0" fit-margin-right="0" fit-margin-top="0" id="base" inkscape:current-layer="g4344" inkscape:cx="10.50084" inkscape:cy="61.117288" inkscape:document-units="px" inkscape:pageopacity="0.0" inkscape:pageshadow="2" inkscape:window-height="987" inkscape:window-maximized="1" inkscape:window-width="1680" inkscape:window-x="1358" inkscape:window-y="32" inkscape:zoom="5.6568542" pagecolor="#ffffff" showgrid="true">
	<inkscape:grid  id="grid3336" originx="-290.00002" originy="-480.00087" type="xygrid"></inkscape:grid>
</sodipodi:namedview>
<path id="rect4476" inkscape:connector-curvature="0" inkscape:export-filename="D:\Documents\GitHub\Hyperocto\src\icons\19.png" inkscape:export-xdpi="14.249999" inkscape:export-ydpi="14.249999" class="st0" d="
	M0,76v12h96V76H0z"/>
<g id="g4344">
	
		<linearGradient id="path4229_1_" gradientUnits="userSpaceOnUse" x1="420.8702" y1="432.6726" x2="500.8018" y2="512.8243" gradientTransform="matrix(0.8 0 0 0.8 -334.8 -332.1109)">
		<stop  offset="0" style="stop-color:#444444"/>
		<stop  offset="1" style="stop-color:#000000"/>
	</linearGradient>
	
		<path id="path4229" inkscape:export-filename="D:\Documents\GitHub\Hyperocto\src\icons\19.png" inkscape:export-xdpi="14.249999" inkscape:export-ydpi="14.249999" class="st1" d="
		M48,0C30.7,0,16.5,13.8,16,31.1c0,0.3,0,0.6,0,0.9v16c0,6.6,5.4,12,12,12l0,0c2.2,0,4,1.8,4,4c0,2.1-1.6,3.8-3.7,4
		c-0.1,0-0.2,0-0.3,0h-8c-6.6,0-12,5.4-12,12l0,0v4v4v4c0,2.2,1.8,4,4,4s4-1.8,4-4v-8v-4c0-0.1,0-0.3,0-0.4c0.2-2,1.9-3.6,4-3.6h8
		c2.2,0,4,1.8,4,4v8v4c0,2.1,1.6,3.8,3.7,4c0.1,0,0.2,0,0.3,0c1.4,0,2.6-0.7,3.4-1.8c0.1-0.2,0.3-0.5,0.4-0.7c0.2-0.5,0.3-1,0.3-1.5
		v-8v-4c0-0.1,0-0.3,0-0.4c0.2-2,1.9-3.6,4-3.6h8c2.2,0,4,1.8,4,4v8v4c0,2.1,1.6,3.8,3.7,4c0.1,0,0.2,0,0.3,0c1.4,0,2.6-0.7,3.4-1.8
		c0.1-0.2,0.3-0.5,0.4-0.7c0.2-0.5,0.3-1,0.3-1.5v-8v-4c0-0.1,0-0.3,0-0.4c0.2-2,1.9-3.6,4-3.6h8l0,0c0.7,0,1.3,0.2,1.9,0.5
		c0.1,0.1,0.2,0.1,0.3,0.2c0.1,0.1,0.2,0.2,0.3,0.2c0.1,0.1,0.2,0.2,0.3,0.3c0.1,0.1,0.2,0.2,0.3,0.3c0.1,0.1,0.2,0.2,0.2,0.3
		c0.1,0.2,0.3,0.5,0.4,0.7c0.1,0.4,0.2,0.8,0.3,1.2c0,0.1,0,0.2,0,0.3l0,0v8v4c0,2.1,1.6,3.8,3.7,4c0.1,0,0.2,0,0.3,0
		c2.2,0,4-1.8,4-4v-8v-4l0,0v-0.1l0,0c0-0.4,0-0.8-0.1-1.2l0,0l0,0c0-0.4-0.1-0.8-0.2-1.2l0,0l0,0c-0.1-0.4-0.2-0.8-0.3-1.1l0,0l0,0
		c-0.1-0.4-0.3-0.7-0.4-1.1c-0.2-0.4-0.3-0.7-0.5-1.1l0,0c0,0,0,0,0-0.1c-0.2-0.3-0.4-0.6-0.6-0.9c0,0,0-0.1-0.1-0.1
		c-0.2-0.3-0.4-0.6-0.7-0.9l0,0c0,0,0,0-0.1-0.1c-0.2-0.3-0.5-0.5-0.7-0.8l-0.1-0.1c-0.2-0.2-0.5-0.4-0.8-0.6
		c-0.1-0.1-0.2-0.1-0.2-0.2c-0.2-0.2-0.5-0.4-0.7-0.5c-0.1-0.1-0.2-0.1-0.3-0.2c-0.2-0.1-0.5-0.3-0.7-0.4c-0.1-0.1-0.3-0.1-0.4-0.2
		c-0.2-0.1-0.5-0.2-0.7-0.3c-0.1,0-0.3-0.1-0.4-0.1c-0.2-0.1-0.5-0.2-0.7-0.2s-0.3-0.1-0.5-0.1c-0.2-0.1-0.4-0.1-0.7-0.1
		c-0.2,0-0.4-0.1-0.6-0.1s-0.4-0.1-0.6-0.1c-0.3,0-0.5,0-0.8,0l0,0h-8c-0.1,0-0.3,0-0.4,0s-0.3,0-0.4-0.1c-0.5-0.1-1-0.3-1.5-0.6
		c-0.1-0.1-0.2-0.2-0.3-0.2c-0.2-0.2-0.4-0.4-0.6-0.6c-0.2-0.3-0.5-0.7-0.6-1c0-0.1-0.1-0.3-0.1-0.4c-0.1-0.3-0.1-0.7-0.1-1.1
		c0-0.1,0-0.3,0-0.4c0.1-0.5,0.2-1,0.5-1.5c0.1-0.1,0.1-0.2,0.2-0.3l0,0c0.1-0.1,0.2-0.2,0.2-0.3c0.8-0.9,1.9-1.4,3.1-1.4
		c4.1,0,7.9-2.1,10.1-5.5c0.1-0.2,0.3-0.5,0.4-0.7c0.1-0.1,0.1-0.2,0.2-0.3l0,0c0.2-0.4,0.3-0.7,0.5-1.1c0.5-1.4,0.8-2.9,0.8-4.3
		v-16c0-0.4,0-0.8-0.1-1.2l0,0c0-1.1-0.1-2.1-0.3-3.2c-0.1-1.1-0.3-2.1-0.6-3.1c-0.8-3.1-2-6.1-3.6-8.9c-0.5-0.9-1.1-1.8-1.8-2.7
		c-1.3-1.7-2.7-3.3-4.3-4.7c-0.8-0.7-1.6-1.4-2.5-2c-2.6-1.9-5.4-3.4-8.5-4.4c-1-0.3-2-0.6-3.1-0.9C52.9,0.3,50.5,0,48,0z M36,34
		c5.5,0,10,4.5,10,10s-4.5,10-10,10s-10-4.5-10-10S30.5,34,36,34z M60,34c5.5,0,10,4.5,10,10s-4.5,10-10,10s-10-4.5-10-10
		S54.5,34,60,34z M36,40c-2.2,0-4,1.8-4,4s1.8,4,4,4s4-1.8,4-4S38.2,40,36,40z M60,40c-2.1,0-3.8,1.6-4,3.7c0,0.1,0,0.2,0,0.3
		c0,2.2,1.8,4,4,4s4-1.8,4-4S62.2,40,60,40z"/>
</g>
</svg>
