<?xml version="1.0" encoding="UTF-8" standalone="no"?>
<!-- Created with Inkscape (http://www.inkscape.org/) -->

<svg
   xmlns:dc="http://purl.org/dc/elements/1.1/"
   xmlns:cc="http://creativecommons.org/ns#"
   xmlns:rdf="http://www.w3.org/1999/02/22-rdf-syntax-ns#"
   xmlns:svg="http://www.w3.org/2000/svg"
   xmlns="http://www.w3.org/2000/svg"
   xmlns:sodipodi="http://sodipodi.sourceforge.net/DTD/sodipodi-0.dtd"
   xmlns:inkscape="http://www.inkscape.org/namespaces/inkscape"
   width="33.866665mm"
   height="33.866665mm"
   viewBox="0 0 119.99999 119.99999"
   id="svg2"
   version="1.1"
   inkscape:version="0.91 r13725"
   sodipodi:docname="octopus_inkscape_small.svg"
   inkscape:export-filename="C:\Users\Garbagecan\Desktop\hypertako\icons\19.png"
   inkscape:export-xdpi="14.25"
   inkscape:export-ydpi="14.25">
  <defs
     id="defs4" />
  <sodipodi:namedview
     id="base"
     pagecolor="#ffffff"
     bordercolor="#666666"
     borderopacity="1.0"
     inkscape:pageopacity="0.0"
     inkscape:pageshadow="2"
     inkscape:zoom="4"
     inkscape:cx="30.249917"
     inkscape:cy="66.497469"
     inkscape:document-units="px"
     inkscape:current-layer="layer2"
     showgrid="true"
     inkscape:window-width="1680"
     inkscape:window-height="987"
     inkscape:window-x="1358"
     inkscape:window-y="32"
     inkscape:window-maximized="1"
     fit-margin-top="0"
     fit-margin-left="0"
     fit-margin-right="0"
     fit-margin-bottom="0">
    <inkscape:grid
       type="xygrid"
       id="grid3336"
       originx="-290.00002"
       originy="-480.00087" />
  </sodipodi:namedview>
  <metadata
     id="metadata7">
    <rdf:RDF>
      <cc:Work
         rdf:about="">
        <dc:format>image/svg+xml</dc:format>
        <dc:type
           rdf:resource="http://purl.org/dc/dcmitype/StillImage" />
        <dc:title />
      </cc:Work>
    </rdf:RDF>
  </metadata>
  <g
     inkscape:groupmode="layer"
     id="layer2"
     inkscape:label="Layer 2"
     style="display:inline"
     transform="translate(-290,-452.36133)">
    <path
       style="fill:#ff0000;stroke:none"
       d="m 20,100 0,10 120,0 0,-10 -120,0 z"
       transform="translate(270,452.36133)"
       id="rect4476"
       inkscape:connector-curvature="0" />
    <path
       style="fill:#000000;stroke:none"
       d="M 80,0 A 40,40 0 0 0 40.037109,38.9375 15,15 0 0 0 40,40 l 0,20 a 15,15 0 0 0 15,15 5,5 0 0 1 5,5 5,5 0 0 1 -5,5 l -10,0 a 15,15 0 0 0 -15,15 l 0,5 0,5 0,5 a 5,5 0 0 0 5,5 5,5 0 0 0 5,-5 l 0,-10 0,-5 A 5,5 0 0 1 40.025391,99.5 5,5 0 0 1 45,95 l 10,0 a 5,5 0 0 1 5,5 l 0,10 0,5 a 5,5 0 0 0 5,5 5,5 0 0 0 5,-5 l 0,-10 0,-5 a 5,5 0 0 1 5,-5 l 10,0 a 5,5 0 0 1 5,5 l 0,10 0,5 a 5,5 0 0 0 5,5 5,5 0 0 0 5,-5 l 0,-10 0,-5 a 5,5 0 0 1 5,-5 l 10,0 a 5,5 0 0 1 0.008,0 5,5 0 0 1 2.39649,0.611328 5,5 0 0 1 0.42578,0.261719 5,5 0 0 1 0.39844,0.302734 5,5 0 0 1 0.36523,0.339844 5,5 0 0 1 0.33008,0.376953 5,5 0 0 1 0.29101,0.40625 5,5 0 0 1 0.45313,0.888672 5,5 0 0 1 0.32812,1.458984 5,5 0 0 1 0.0117,0.353516 l -0.008,0 0,10 0,5 a 5,5 0 0 0 5,5 5,5 0 0 0 5,-5 l 0,-10 0,-5 0.008,0 A 15,15 0 0 0 130,99.841797 a 15,15 0 0 0 0,-0.002 15,15 0 0 0 -0.0898,-1.492188 15,15 0 0 0 0,-0.002 15,15 0 0 0 -0.004,-0.02148 15,15 0 0 0 -0.23633,-1.455078 15,15 0 0 0 0,-0.0039 15,15 0 0 0 -0.008,-0.0293 15,15 0 0 0 -0.37891,-1.417969 15,15 0 0 0 0,-0.002 15,15 0 0 0 -0.006,-0.01367 15,15 0 0 0 -0.52343,-1.388672 15,15 0 0 0 -0.66211,-1.333984 15,15 0 0 0 -0.004,-0.0098 15,15 0 0 0 -0.0449,-0.07227 15,15 0 0 0 -0.74414,-1.183594 15,15 0 0 0 -0.0859,-0.115234 15,15 0 0 0 -0.83398,-1.070312 15,15 0 0 0 -0.008,-0.01172 15,15 0 0 0 -0.084,-0.08789 15,15 0 0 0 -0.93164,-0.980468 15,15 0 0 0 -0.18359,-0.160157 15,15 0 0 0 -0.94336,-0.8125 15,15 0 0 0 -0.29883,-0.21289 15,15 0 0 0 -0.91602,-0.640625 15,15 0 0 0 -0.42187,-0.242188 15,15 0 0 0 -0.87696,-0.490234 15,15 0 0 0 -0.48632,-0.21875 15,15 0 0 0 -0.88672,-0.384766 15,15 0 0 0 -0.50977,-0.169922 15,15 0 0 0 -0.91211,-0.292968 15,15 0 0 0 -0.61719,-0.136719 15,15 0 0 0 -0.82617,-0.177735 15,15 0 0 0 -0.71484,-0.08789 15,15 0 0 0 -0.80469,-0.08789 A 15,15 0 0 0 115.00781,85 L 114.9707,85 105,85 a 5,5 0 0 1 -5,-5 5,5 0 0 1 5,-5 15,15 0 0 0 15,-15 l 0,-20 a 40,40 0 0 0 -0.0742,-1.498047 15,15 0 0 0 0,-0.0059 A 40,40 0 0 0 80,0 Z M 65,37.5 A 12.5,12.5 0 0 1 77.5,50 12.5,12.5 0 0 1 65,62.5 12.5,12.5 0 0 1 52.5,50 12.5,12.5 0 0 1 65,37.5 Z m 30,0 A 12.5,12.5 0 0 1 107.5,50 12.5,12.5 0 0 1 95,62.5 12.5,12.5 0 0 1 82.5,50 12.5,12.5 0 0 1 95,37.5 Z M 65,45 a 5,5 0 0 0 -5,5 5,5 0 0 0 5,5 5,5 0 0 0 5,-5 5,5 0 0 0 -5,-5 z m 30,0 a 5,5 0 0 0 -5,5 5,5 0 0 0 5,5 5,5 0 0 0 5,-5 5,5 0 0 0 -5,-5 z"
       transform="translate(270,452.36133)"
       id="path4531"
       inkscape:connector-curvature="0" />
  </g>
</svg>
