<?xml version="1.0" encoding="UTF-8" standalone="no"?>
<!-- Created with Inkscape (http://www.inkscape.org/) -->

<svg
   xmlns:dc="http://purl.org/dc/elements/1.1/"
   xmlns:cc="http://creativecommons.org/ns#"
   xmlns:rdf="http://www.w3.org/1999/02/22-rdf-syntax-ns#"
   xmlns:svg="http://www.w3.org/2000/svg"
   xmlns="http://www.w3.org/2000/svg"
   xmlns:sodipodi="http://sodipodi.sourceforge.net/DTD/sodipodi-0.dtd"
   xmlns:inkscape="http://www.inkscape.org/namespaces/inkscape"
   width="45.155556mm"
   height="35.272854mm"
   viewBox="0 0 160 124.98255"
   id="svg2"
   version="1.1"
   inkscape:version="0.91 r13725"
   sodipodi:docname="octopus_inkscape.svg"
   inkscape:export-filename="C:\Users\Garbagecan\Desktop\octopus.png"
   inkscape:export-xdpi="10.69"
   inkscape:export-ydpi="10.69">
  <defs
     id="defs4" />
  <sodipodi:namedview
     id="base"
     pagecolor="#ffffff"
     bordercolor="#666666"
     borderopacity="1.0"
     inkscape:pageopacity="0.0"
     inkscape:pageshadow="2"
     inkscape:zoom="4"
     inkscape:cx="70.55638"
     inkscape:cy="48.819533"
     inkscape:document-units="px"
     inkscape:current-layer="layer2"
     showgrid="true"
     inkscape:window-width="1680"
     inkscape:window-height="987"
     inkscape:window-x="1358"
     inkscape:window-y="32"
     inkscape:window-maximized="1"
     fit-margin-top="0"
     fit-margin-left="0"
     fit-margin-right="0"
     fit-margin-bottom="0">
    <inkscape:grid
       type="xygrid"
       id="grid3336"
       originx="-270"
       originy="-475.01832" />
  </sodipodi:namedview>
  <metadata
     id="metadata7">
    <rdf:RDF>
      <cc:Work
         rdf:about="">
        <dc:format>image/svg+xml</dc:format>
        <dc:type
           rdf:resource="http://purl.org/dc/dcmitype/StillImage" />
        <dc:title />
      </cc:Work>
    </rdf:RDF>
  </metadata>
  <g
     inkscape:groupmode="layer"
     id="layer2"
     inkscape:label="Layer 2"
     style="display:inline"
     transform="translate(-270,-452.36133)">
    <path
       style="fill:#ff0000;stroke:none"
       d="M 0 100 L 0 105 L 0 110 L 5 110 L 10 110 L 150 110 L 155 110 L 160 110 L 160 105 L 160 100 L 155 100 L 150 100 L 10 100 L 5 100 L 0 100 z "
       transform="translate(270,452.36133)"
       id="rect4476" />
    <path
       style="fill:#000000;stroke:none"
       d="M 80 0 A 40 40 0 0 0 40.037109 38.9375 A 15 15 0 0 0 40 40 L 40 60 A 15 15 0 0 0 55 75 A 5 5 0 0 1 60 80 A 5 5 0 0 1 55 85 L 45 85 A 15 15 0 0 0 30 100 L 40 100 A 5 5 0 0 1 45 95 A 5 5 0 0 1 50 100 L 50 105 L 50 110 L 50.009766 110 A 15 15 0 0 0 54.392578 120.60742 A 15 15 0 0 0 54.535156 120.73633 A 15 15 0 0 0 54.742188 120.92188 A 15 15 0 0 0 55.638672 121.71094 A 15 15 0 0 0 56.033203 122.00195 A 15 15 0 0 0 56.822266 122.56641 A 15 15 0 0 0 57.5 122.99023 A 15 15 0 0 0 57.767578 123.12695 A 15 15 0 0 0 58.433594 123.4668 A 15 15 0 0 0 59.080078 123.76758 A 15 15 0 0 0 59.833984 124.0625 A 15 15 0 0 0 60.492188 124.29102 A 15 15 0 0 0 61.251953 124.50391 A 15 15 0 0 0 61.933594 124.66797 A 15 15 0 0 0 62.765625 124.8125 A 15 15 0 0 0 63.388672 124.89648 A 15 15 0 0 0 64.271484 124.96094 A 15 15 0 0 0 64.876953 124.98242 A 15 15 0 0 0 65.789062 124.95703 A 15 15 0 0 0 66.365234 124.91992 A 15 15 0 0 0 67.273438 124.80469 A 15 15 0 0 0 67.853516 124.70703 A 15 15 0 0 0 68.751953 124.5 A 15 15 0 0 0 69.294922 124.35156 A 15 15 0 0 0 70.212891 124.03906 A 15 15 0 0 0 70.685547 123.85938 A 15 15 0 0 0 71.583984 123.45117 A 15 15 0 0 0 72.054688 123.21484 A 15 15 0 0 0 72.917969 122.70898 A 15 15 0 0 0 73.314453 122.45898 A 15 15 0 0 0 74.158203 121.84766 A 15 15 0 0 0 74.515625 121.56836 A 15 15 0 0 0 75.34375 120.85352 A 15 15 0 0 0 75.349609 120.84766 A 5 5 0 0 0 75.607422 120.60547 A 5 5 0 0 0 76.033203 120.11328 A 15 15 0 0 0 77.753906 117.86719 A 5 5 0 0 0 77.990234 117.5 A 5 5 0 0 0 76.160156 110.66992 A 5 5 0 0 0 69.330078 112.5 A 5 5 0 0 1 68.476562 113.58984 A 5 5 0 0 1 68.265625 113.7793 A 5 5 0 0 1 68.09375 113.92383 A 5 5 0 0 1 67.884766 114.07617 A 5 5 0 0 1 67.679688 114.2168 A 5 5 0 0 1 67.458984 114.3457 A 5 5 0 0 1 67.251953 114.45898 A 5 5 0 0 1 67.013672 114.57031 A 5 5 0 0 1 66.792969 114.66211 A 5 5 0 0 1 66.539062 114.75 A 5 5 0 0 1 66.322266 114.81641 A 5 5 0 0 1 66.074219 114.87695 A 5 5 0 0 1 65.822266 114.92773 A 5 5 0 0 1 65.566406 114.96094 A 5 5 0 0 1 65.347656 114.98242 A 5 5 0 0 1 65.056641 114.99414 A 5 5 0 0 1 64.837891 114.99219 A 5 5 0 0 1 64.582031 114.97656 A 5 5 0 0 1 64.333984 114.95117 A 5 5 0 0 1 64.072266 114.9082 A 5 5 0 0 1 63.859375 114.86328 A 5 5 0 0 1 63.578125 114.78711 A 5 5 0 0 1 63.371094 114.72266 A 5 5 0 0 1 63.123047 114.62891 A 5 5 0 0 1 62.90625 114.53711 A 5 5 0 0 1 62.564453 114.36328 A 5 5 0 0 1 62.53125 114.34766 A 5 5 0 0 1 62.230469 114.15625 A 5 5 0 0 1 62.107422 114.07617 A 5 5 0 0 1 61.876953 113.89453 A 5 5 0 0 1 61.701172 113.75586 A 5 5 0 0 1 61.654297 113.71094 A 5 5 0 0 1 61.398438 113.46289 A 5 5 0 0 1 61.226562 113.26953 A 5 5 0 0 1 61.080078 113.0957 A 5 5 0 0 1 60.923828 112.88477 A 5 5 0 0 1 60.779297 112.66797 A 5 5 0 0 1 60.667969 112.48047 A 5 5 0 0 1 60.535156 112.23828 A 5 5 0 0 1 60.439453 112.03125 A 5 5 0 0 1 60.335938 111.78125 A 5 5 0 0 1 60.255859 111.55273 A 5 5 0 0 1 60.183594 111.31445 A 5 5 0 0 1 60.125 111.07617 A 5 5 0 0 1 60.074219 110.82031 A 5 5 0 0 1 60.042969 110.58008 A 5 5 0 0 1 60.017578 110.30664 A 5 5 0 0 1 60.003906 110 L 60 110 L 60 105 L 60 100 A 5 5 0 0 1 65 95 L 79.123047 95 L 80.875 95 L 95 95 A 5 5 0 0 1 100 100 L 100 104.76367 A 5 5 0 0 1 100.00781 105 L 100.00781 110 L 100.00391 110 A 5 5 0 0 1 99.990234 110.30664 A 5 5 0 0 1 99.964844 110.58008 A 5 5 0 0 1 99.933594 110.82031 A 5 5 0 0 1 99.882812 111.07617 A 5 5 0 0 1 99.824219 111.31445 A 5 5 0 0 1 99.751953 111.55273 A 5 5 0 0 1 99.671875 111.78125 A 5 5 0 0 1 99.568359 112.03125 A 5 5 0 0 1 99.472656 112.23828 A 5 5 0 0 1 99.339844 112.48047 A 5 5 0 0 1 99.228516 112.66797 A 5 5 0 0 1 99.083984 112.88477 A 5 5 0 0 1 98.927734 113.0957 A 5 5 0 0 1 98.78125 113.26953 A 5 5 0 0 1 98.609375 113.46289 A 5 5 0 0 1 98.353516 113.71094 A 5 5 0 0 1 98.306641 113.75586 A 5 5 0 0 1 98.130859 113.89453 A 5 5 0 0 1 97.900391 114.07617 A 5 5 0 0 1 97.777344 114.15625 A 5 5 0 0 1 97.476562 114.34766 A 5 5 0 0 1 97.443359 114.36328 A 5 5 0 0 1 97.101562 114.53711 A 5 5 0 0 1 96.884766 114.62891 A 5 5 0 0 1 96.636719 114.72266 A 5 5 0 0 1 96.429688 114.78711 A 5 5 0 0 1 96.148438 114.86328 A 5 5 0 0 1 95.935547 114.9082 A 5 5 0 0 1 95.673828 114.95117 A 5 5 0 0 1 95.425781 114.97656 A 5 5 0 0 1 95.169922 114.99219 A 5 5 0 0 1 94.951172 114.99414 A 5 5 0 0 1 94.660156 114.98242 A 5 5 0 0 1 94.441406 114.96094 A 5 5 0 0 1 94.185547 114.92773 A 5 5 0 0 1 93.933594 114.87695 A 5 5 0 0 1 93.685547 114.81641 A 5 5 0 0 1 93.46875 114.75 A 5 5 0 0 1 93.214844 114.66211 A 5 5 0 0 1 92.994141 114.57031 A 5 5 0 0 1 92.755859 114.45898 A 5 5 0 0 1 92.548828 114.3457 A 5 5 0 0 1 92.328125 114.2168 A 5 5 0 0 1 92.123047 114.07617 A 5 5 0 0 1 91.914062 113.92383 A 5 5 0 0 1 91.742188 113.7793 A 5 5 0 0 1 91.53125 113.58984 A 5 5 0 0 1 90.677734 112.5 A 5 5 0 0 0 83.847656 110.66992 A 5 5 0 0 0 82.017578 117.5 A 5 5 0 0 0 82.253906 117.86719 A 15 15 0 0 0 83.974609 120.11328 A 5 5 0 0 0 84.400391 120.60547 A 5 5 0 0 0 84.658203 120.84766 A 15 15 0 0 0 84.664062 120.85352 A 15 15 0 0 0 85.492188 121.56836 A 15 15 0 0 0 85.849609 121.84766 A 15 15 0 0 0 86.693359 122.45898 A 15 15 0 0 0 87.089844 122.70898 A 15 15 0 0 0 87.953125 123.21484 A 15 15 0 0 0 88.423828 123.45117 A 15 15 0 0 0 89.322266 123.85938 A 15 15 0 0 0 89.794922 124.03906 A 15 15 0 0 0 90.712891 124.35156 A 15 15 0 0 0 91.255859 124.5 A 15 15 0 0 0 92.154297 124.70703 A 15 15 0 0 0 92.734375 124.80469 A 15 15 0 0 0 93.642578 124.91992 A 15 15 0 0 0 94.21875 124.95703 A 15 15 0 0 0 95.130859 124.98242 A 15 15 0 0 0 95.736328 124.96094 A 15 15 0 0 0 96.619141 124.89648 A 15 15 0 0 0 97.242188 124.8125 A 15 15 0 0 0 98.074219 124.66797 A 15 15 0 0 0 98.755859 124.50391 A 15 15 0 0 0 99.515625 124.29102 A 15 15 0 0 0 100.17383 124.0625 A 15 15 0 0 0 100.92773 123.76758 A 15 15 0 0 0 101.57422 123.4668 A 15 15 0 0 0 102.24023 123.12695 A 15 15 0 0 0 102.50781 122.99023 A 15 15 0 0 0 103.18555 122.56641 A 15 15 0 0 0 103.97461 122.00195 A 15 15 0 0 0 104.36914 121.71094 A 15 15 0 0 0 105.26562 120.92188 A 15 15 0 0 0 105.47266 120.73633 A 15 15 0 0 0 105.61523 120.60742 A 15 15 0 0 0 109.99805 110 L 110.00781 110 L 110.00781 105 L 110.00781 100 A 5 5 0 0 1 115.00781 95 A 5 5 0 0 1 120.00781 100 L 130.00781 100 A 15 15 0 0 0 115.00781 85 A 15 15 0 0 0 115 85 L 114.9707 85 L 105 85 A 5 5 0 0 1 100 80 A 5 5 0 0 1 105 75 A 15 15 0 0 0 120 60 L 120 40 A 40 40 0 0 0 119.92578 38.501953 A 15 15 0 0 0 119.92578 38.496094 A 40 40 0 0 0 80 0 z M 60 50 A 10 10 0 0 1 70 60 A 10 10 0 0 1 60 70 A 10 10 0 0 1 50 60 A 10 10 0 0 1 60 50 z M 100 50 A 10 10 0 0 1 110 60 A 10 10 0 0 1 100 70 A 10 10 0 0 1 90 60 A 10 10 0 0 1 100 50 z M 60 55 A 5 5 0 0 0 55 60 A 5 5 0 0 0 60 65 A 5 5 0 0 0 65 60 A 5 5 0 0 0 60 55 z M 100 55 A 5 5 0 0 0 95 60 A 5 5 0 0 0 100 65 A 5 5 0 0 0 105 60 A 5 5 0 0 0 100 55 z M 140.125 91.341797 A 5 5 0 0 0 139.77148 91.345703 A 5 5 0 0 0 135.67773 93.839844 A 5 5 0 0 0 137.50781 100.66992 A 5 5 0 0 1 139.33789 107.5 A 5 5 0 0 1 135 109.99414 L 135 110 L 120.90039 110 A 15 15 0 0 0 127.50781 117.99023 A 15 15 0 0 0 147.99805 112.5 A 15 15 0 0 0 142.875 92.246094 A 5 5 0 0 0 142.50781 92.009766 A 5 5 0 0 0 140.125 91.341797 z M 20.236328 91.345703 A 5 5 0 0 0 17.5 92.009766 A 5 5 0 0 0 17.132812 92.246094 A 15 15 0 0 0 12.009766 112.5 A 15 15 0 0 0 32.5 117.99023 A 15 15 0 0 0 39.123047 110 L 25 110 L 25 109.99609 A 5 5 0 0 1 20.669922 107.5 A 5 5 0 0 1 22.5 100.66992 A 5 5 0 0 0 24.330078 93.839844 A 5 5 0 0 0 20.236328 91.345703 z "
       transform="translate(270,452.36133)"
       id="path4531" />
  </g>
</svg>
