<?xml version="1.0" encoding="UTF-8" standalone="no"?>
<!-- Created with Inkscape (http://www.inkscape.org/) -->

<svg
   xmlns:dc="http://purl.org/dc/elements/1.1/"
   xmlns:cc="http://creativecommons.org/ns#"
   xmlns:rdf="http://www.w3.org/1999/02/22-rdf-syntax-ns#"
   xmlns:svg="http://www.w3.org/2000/svg"
   xmlns="http://www.w3.org/2000/svg"
   xmlns:sodipodi="http://sodipodi.sourceforge.net/DTD/sodipodi-0.dtd"
   xmlns:inkscape="http://www.inkscape.org/namespaces/inkscape"
   width="47.977779mm"
   height="38.099998mm"
   viewBox="0 0 170.00001 134.99999"
   id="svg2"
   version="1.1"
   inkscape:version="0.91 r13725"
   sodipodi:docname="octopus_draft.svg"
   inkscape:export-filename="C:\Users\Garbagecan\Desktop\octopus.png"
   inkscape:export-xdpi="10.69"
   inkscape:export-ydpi="10.69">
  <defs
     id="defs4" />
  <sodipodi:namedview
     id="base"
     pagecolor="#ffffff"
     bordercolor="#666666"
     borderopacity="1.0"
     inkscape:pageopacity="0.0"
     inkscape:pageshadow="2"
     inkscape:zoom="5.6568542"
     inkscape:cx="70.795697"
     inkscape:cy="68.358066"
     inkscape:document-units="px"
     inkscape:current-layer="layer2"
     showgrid="false"
     inkscape:window-width="1680"
     inkscape:window-height="987"
     inkscape:window-x="1358"
     inkscape:window-y="32"
     inkscape:window-maximized="1"
     fit-margin-top="0"
     fit-margin-left="0"
     fit-margin-right="0"
     fit-margin-bottom="0">
    <inkscape:grid
       type="xygrid"
       id="grid3336"
       originx="-265.00002"
       originy="-469.99996" />
  </sodipodi:namedview>
  <metadata
     id="metadata7">
    <rdf:RDF>
      <cc:Work
         rdf:about="">
        <dc:format>image/svg+xml</dc:format>
        <dc:type
           rdf:resource="http://purl.org/dc/dcmitype/StillImage" />
        <dc:title />
      </cc:Work>
    </rdf:RDF>
  </metadata>
  <g
     inkscape:groupmode="layer"
     id="layer2"
     inkscape:label="Layer 2"
     style="display:inline"
     transform="translate(-265,-447.36221)">
    <path
       style="display:inline;fill:none;fill-rule:evenodd;stroke:#e6e6e6;stroke-width:0.30000001;stroke-linecap:butt;stroke-linejoin:miter;stroke-miterlimit:4;stroke-dasharray:none;stroke-opacity:1"
       d="m 430,582.36221 0,-135"
       id="path4410-6"
       inkscape:connector-curvature="0" />
    <path
       style="display:inline;fill:none;fill-rule:evenodd;stroke:#e6e6e6;stroke-width:0.30000001;stroke-linecap:butt;stroke-linejoin:miter;stroke-miterlimit:4;stroke-dasharray:none;stroke-opacity:1"
       d="m 270,582.36221 0,-135"
       id="path4408-8"
       inkscape:connector-curvature="0" />
    <path
       style="fill:none;fill-rule:evenodd;stroke:#e6e6e6;stroke-width:0.30000001;stroke-linecap:butt;stroke-linejoin:miter;stroke-miterlimit:4;stroke-dasharray:none;stroke-opacity:1"
       d="m 265,452.36219 170,0"
       id="path4458"
       inkscape:connector-curvature="0" />
    <path
       style="fill:none;fill-rule:evenodd;stroke:#e6e6e6;stroke-width:0.30000001;stroke-linecap:butt;stroke-linejoin:miter;stroke-miterlimit:4;stroke-dasharray:none;stroke-opacity:1"
       d="m 400,447.36221 0,135"
       id="path4454"
       inkscape:connector-curvature="0" />
    <path
       style="fill:none;fill-rule:evenodd;stroke:#e6e6e6;stroke-width:0.30000001;stroke-linecap:butt;stroke-linejoin:miter;stroke-miterlimit:4;stroke-dasharray:none;stroke-opacity:1"
       d="m 410,447.36221 0,135"
       id="path4456"
       inkscape:connector-curvature="0" />
    <path
       style="fill:none;fill-rule:evenodd;stroke:#e6e6e6;stroke-width:0.30000001;stroke-linecap:butt;stroke-linejoin:miter;stroke-miterlimit:4;stroke-dasharray:none;stroke-opacity:1"
       d="m 380,447.36221 0,135"
       id="path4344"
       inkscape:connector-curvature="0" />
    <path
       style="fill:none;fill-rule:evenodd;stroke:#e6e6e6;stroke-width:0.30000001;stroke-linecap:butt;stroke-linejoin:miter;stroke-miterlimit:4;stroke-dasharray:none;stroke-opacity:1"
       d="m 390,447.36221 0,135"
       id="path4346"
       inkscape:connector-curvature="0" />
    <path
       style="fill:none;fill-rule:evenodd;stroke:#e6e6e6;stroke-width:0.30000001;stroke-linecap:butt;stroke-linejoin:miter;stroke-miterlimit:4;stroke-dasharray:none;stroke-opacity:1"
       d="m 310,447.36221 0,135"
       id="path4348"
       inkscape:connector-curvature="0" />
    <path
       style="fill:none;fill-rule:evenodd;stroke:#e6e6e6;stroke-width:0.30000001;stroke-linecap:butt;stroke-linejoin:miter;stroke-miterlimit:4;stroke-dasharray:none;stroke-opacity:1"
       d="m 320,447.36221 0,135"
       id="path4350"
       inkscape:connector-curvature="0" />
    <path
       style="fill:none;fill-rule:evenodd;stroke:#e6e6e6;stroke-width:0.30000001;stroke-linecap:butt;stroke-linejoin:miter;stroke-miterlimit:4;stroke-dasharray:none;stroke-opacity:1"
       d="m 265,552.36221 170,0"
       id="path4352"
       inkscape:connector-curvature="0" />
    <path
       style="fill:none;fill-rule:evenodd;stroke:#e6e6e6;stroke-width:0.30000001;stroke-linecap:butt;stroke-linejoin:miter;stroke-miterlimit:4;stroke-dasharray:none;stroke-opacity:1"
       d="m 435,562.36221 -170,0"
       id="path4354"
       inkscape:connector-curvature="0" />
    <path
       style="fill:none;fill-rule:evenodd;stroke:#e6e6e6;stroke-width:0.30000001;stroke-linecap:butt;stroke-linejoin:miter;stroke-miterlimit:4;stroke-dasharray:none;stroke-opacity:1"
       d="m 265,557.36221 170,0"
       id="path4356"
       inkscape:connector-curvature="0" />
    <path
       style="fill:none;fill-rule:evenodd;stroke:#e6e6e6;stroke-width:0.30000001;stroke-linecap:butt;stroke-linejoin:miter;stroke-miterlimit:4;stroke-dasharray:none;stroke-opacity:1"
       d="m 265,547.36221 170,0"
       id="path4358"
       inkscape:connector-curvature="0" />
    <path
       style="fill:none;fill-rule:evenodd;stroke:#e6e6e6;stroke-width:0.30000001;stroke-linecap:butt;stroke-linejoin:miter;stroke-miterlimit:4;stroke-dasharray:none;stroke-opacity:1"
       d="m 435,567.36221 -170,0"
       id="path4360"
       inkscape:connector-curvature="0" />
    <path
       style="fill:none;fill-rule:evenodd;stroke:#e6e6e6;stroke-width:0.30000001;stroke-linecap:butt;stroke-linejoin:miter;stroke-miterlimit:4;stroke-dasharray:none;stroke-opacity:1"
       d="m 265,577.36221 170,0"
       id="path4362"
       inkscape:connector-curvature="0" />
    <path
       style="fill:none;fill-rule:evenodd;stroke:#e6e6e6;stroke-width:0.30000001;stroke-linecap:butt;stroke-linejoin:miter;stroke-miterlimit:4;stroke-dasharray:none;stroke-opacity:1"
       d="m 330,447.36221 0,135"
       id="path4364"
       inkscape:connector-curvature="0" />
    <path
       style="fill:none;fill-rule:evenodd;stroke:#e6e6e6;stroke-width:0.30000001;stroke-linecap:butt;stroke-linejoin:miter;stroke-miterlimit:4;stroke-dasharray:none;stroke-opacity:1"
       d="m 370,447.36221 0,135"
       id="path4366"
       inkscape:connector-curvature="0" />
    <path
       style="fill:none;fill-rule:evenodd;stroke:#e6e6e6;stroke-width:0.30000001;stroke-linecap:butt;stroke-linejoin:miter;stroke-miterlimit:4;stroke-dasharray:none;stroke-opacity:1"
       d="m 385,447.36221 0,135"
       id="path4368"
       inkscape:connector-curvature="0" />
    <path
       style="fill:none;fill-rule:evenodd;stroke:#e6e6e6;stroke-width:0.30000001;stroke-linecap:butt;stroke-linejoin:miter;stroke-miterlimit:4;stroke-dasharray:none;stroke-opacity:1"
       d="m 315,447.36221 0,135"
       id="path4370"
       inkscape:connector-curvature="0" />
    <path
       style="fill:none;fill-rule:evenodd;stroke:#e6e6e6;stroke-width:0.30000001;stroke-linecap:butt;stroke-linejoin:miter;stroke-miterlimit:4;stroke-dasharray:none;stroke-opacity:1"
       d="m 375,447.36221 0,135"
       id="path4372"
       inkscape:connector-curvature="0" />
    <path
       style="fill:none;fill-rule:evenodd;stroke:#e6e6e6;stroke-width:0.30000001;stroke-linecap:butt;stroke-linejoin:miter;stroke-miterlimit:4;stroke-dasharray:none;stroke-opacity:1"
       d="m 325,447.36221 0,135"
       id="path4374"
       inkscape:connector-curvature="0" />
    <path
       style="fill:none;fill-rule:evenodd;stroke:#e6e6e6;stroke-width:0.30000001;stroke-linecap:butt;stroke-linejoin:miter;stroke-miterlimit:4;stroke-dasharray:none;stroke-opacity:1"
       d="m 265,532.36221 170,0"
       id="path4376"
       inkscape:connector-curvature="0" />
    <path
       style="fill:none;fill-rule:evenodd;stroke:#e6e6e6;stroke-width:0.30000001;stroke-linecap:butt;stroke-linejoin:miter;stroke-miterlimit:4;stroke-dasharray:none;stroke-opacity:1"
       d="m 365,582.36221 0,-135"
       id="path4378"
       inkscape:connector-curvature="0" />
    <path
       style="fill:none;fill-rule:evenodd;stroke:#e6e6e6;stroke-width:0.30000001;stroke-linecap:butt;stroke-linejoin:miter;stroke-miterlimit:4;stroke-dasharray:none;stroke-opacity:1"
       d="m 335,447.36221 0,135"
       id="path4380"
       inkscape:connector-curvature="0" />
    <path
       style="fill:none;fill-rule:evenodd;stroke:#e6e6e6;stroke-width:0.30000001;stroke-linecap:butt;stroke-linejoin:miter;stroke-miterlimit:4;stroke-dasharray:none;stroke-opacity:1"
       d="m 340,582.36221 0,-135"
       id="path4382"
       inkscape:connector-curvature="0" />
    <path
       style="fill:none;fill-rule:evenodd;stroke:#e6e6e6;stroke-width:0.30000001;stroke-linecap:butt;stroke-linejoin:miter;stroke-miterlimit:4;stroke-dasharray:none;stroke-opacity:1"
       d="m 360,447.36221 0,135"
       id="path4384"
       inkscape:connector-curvature="0" />
    <path
       style="fill:none;fill-rule:evenodd;stroke:#e6e6e6;stroke-width:0.30000001;stroke-linecap:butt;stroke-linejoin:miter;stroke-miterlimit:4;stroke-dasharray:none;stroke-opacity:1"
       d="m 350,582.36221 0,-135"
       id="path4386"
       inkscape:connector-curvature="0" />
    <path
       style="fill:none;fill-rule:evenodd;stroke:#e6e6e6;stroke-width:0.30000001;stroke-linecap:butt;stroke-linejoin:miter;stroke-miterlimit:4;stroke-dasharray:none;stroke-opacity:1"
       d="m 265,512.36221 170,0"
       id="path4388"
       inkscape:connector-curvature="0" />
    <path
       style="fill:none;fill-rule:evenodd;stroke:#e6e6e6;stroke-width:0.30000001;stroke-linecap:butt;stroke-linejoin:miter;stroke-miterlimit:4;stroke-dasharray:none;stroke-opacity:1"
       d="m 265,527.36221 170,0"
       id="path4390"
       inkscape:connector-curvature="0" />
    <path
       style="fill:none;fill-rule:evenodd;stroke:#e6e6e6;stroke-width:0.30000001;stroke-linecap:butt;stroke-linejoin:miter;stroke-miterlimit:4;stroke-dasharray:none;stroke-opacity:1"
       d="m 435,497.36221 -170,0"
       id="path4392"
       inkscape:connector-curvature="0" />
    <path
       style="fill:none;fill-rule:evenodd;stroke:#e6e6e6;stroke-width:0.30000001;stroke-linecap:butt;stroke-linejoin:miter;stroke-miterlimit:4;stroke-dasharray:none;stroke-opacity:1"
       d="m 265,502.36221 170,0"
       id="path4394"
       inkscape:connector-curvature="0" />
    <path
       style="fill:none;fill-rule:evenodd;stroke:#e6e6e6;stroke-width:0.30000001;stroke-linecap:butt;stroke-linejoin:miter;stroke-miterlimit:4;stroke-dasharray:none;stroke-opacity:1"
       d="m 435,507.36221 -170,0"
       id="path4396"
       inkscape:connector-curvature="0" />
    <path
       style="fill:none;fill-rule:evenodd;stroke:#e6e6e6;stroke-width:0.30000001;stroke-linecap:butt;stroke-linejoin:miter;stroke-miterlimit:4;stroke-dasharray:none;stroke-opacity:1"
       d="m 265,517.36221 170,0"
       id="path4398"
       inkscape:connector-curvature="0" />
    <path
       style="fill:none;fill-rule:evenodd;stroke:#e6e6e6;stroke-width:0.30000001;stroke-linecap:butt;stroke-linejoin:miter;stroke-miterlimit:4;stroke-dasharray:none;stroke-opacity:1"
       d="m 435,522.36221 -170,0"
       id="path4400"
       inkscape:connector-curvature="0" />
    <path
       style="fill:none;fill-rule:evenodd;stroke:#e6e6e6;stroke-width:0.30000001;stroke-linecap:butt;stroke-linejoin:miter;stroke-miterlimit:4;stroke-dasharray:none;stroke-opacity:1"
       d="m 265,537.36221 170,0"
       id="path4402"
       inkscape:connector-curvature="0" />
    <path
       style="fill:none;fill-rule:evenodd;stroke:#e6e6e6;stroke-width:0.30000001;stroke-linecap:butt;stroke-linejoin:miter;stroke-miterlimit:4;stroke-dasharray:none;stroke-opacity:1"
       d="m 435,542.36221 -170,0"
       id="path4404"
       inkscape:connector-curvature="0" />
    <path
       style="fill:none;fill-rule:evenodd;stroke:#e6e6e6;stroke-width:0.30000001;stroke-linecap:butt;stroke-linejoin:miter;stroke-miterlimit:4;stroke-dasharray:none;stroke-opacity:1"
       d="m 435,572.36221 -170,0"
       id="path4406"
       inkscape:connector-curvature="0" />
    <path
       style="fill:none;fill-rule:evenodd;stroke:#e6e6e6;stroke-width:0.30000001;stroke-linecap:butt;stroke-linejoin:miter;stroke-miterlimit:4;stroke-dasharray:none;stroke-opacity:1"
       d="m 280,582.36221 0,-135"
       id="path4408"
       inkscape:connector-curvature="0" />
    <path
       style="fill:none;fill-rule:evenodd;stroke:#e6e6e6;stroke-width:0.30000001;stroke-linecap:butt;stroke-linejoin:miter;stroke-miterlimit:4;stroke-dasharray:none;stroke-opacity:1"
       d="m 420,582.36221 0,-135"
       id="path4410"
       inkscape:connector-curvature="0" />
    <path
       style="fill:none;fill-rule:evenodd;stroke:#e6e6e6;stroke-width:0.30000001;stroke-linecap:butt;stroke-linejoin:miter;stroke-miterlimit:4;stroke-dasharray:none;stroke-opacity:1"
       d="m 405,582.36221 0,-135"
       id="path4412"
       inkscape:connector-curvature="0" />
    <path
       style="fill:none;fill-rule:evenodd;stroke:#e6e6e6;stroke-width:0.30000001;stroke-linecap:butt;stroke-linejoin:miter;stroke-miterlimit:4;stroke-dasharray:none;stroke-opacity:1"
       d="m 295,447.36221 0,135"
       id="path4414"
       inkscape:connector-curvature="0" />
    <path
       style="fill:none;fill-rule:evenodd;stroke:#e6e6e6;stroke-width:0.30000001;stroke-linecap:butt;stroke-linejoin:miter;stroke-miterlimit:4;stroke-dasharray:none;stroke-opacity:1"
       d="m 300,582.36221 0,-135"
       id="path4416"
       inkscape:connector-curvature="0" />
    <path
       style="fill:none;fill-rule:evenodd;stroke:#e6e6e6;stroke-width:0.30000001;stroke-linecap:butt;stroke-linejoin:miter;stroke-miterlimit:4;stroke-dasharray:none;stroke-opacity:1"
       d="m 290,447.36221 0,135"
       id="path4418"
       inkscape:connector-curvature="0" />
    <path
       style="fill:none;fill-rule:evenodd;stroke:#e6e6e6;stroke-width:0.30000001;stroke-linecap:butt;stroke-linejoin:miter;stroke-miterlimit:4;stroke-dasharray:none;stroke-opacity:1"
       d="m 265,492.36221 170,0"
       id="path4422"
       inkscape:connector-curvature="0" />
    <circle
       style="fill:none;stroke:#cccccc;stroke-width:0.30000001;stroke-miterlimit:4;stroke-dasharray:none;stroke-dashoffset:0"
       id="path3345"
       cx="385"
       cy="552.36218"
       r="15" />
    <circle
       style="fill:none;stroke:#cccccc;stroke-width:0.30000001;stroke-miterlimit:4;stroke-dasharray:none;stroke-dashoffset:0"
       id="path3347"
       cx="315"
       cy="552.36218"
       r="15" />
    <circle
       style="fill:none;stroke:#cccccc;stroke-width:0.30000001;stroke-miterlimit:4;stroke-dasharray:none;stroke-dashoffset:0"
       id="path3349"
       cx="315"
       cy="552.36218"
       r="5" />
    <circle
       style="fill:none;stroke:#cccccc;stroke-width:0.30000001;stroke-miterlimit:4;stroke-dasharray:none;stroke-dashoffset:0"
       id="path3351"
       cx="385"
       cy="552.36218"
       r="5" />
    <circle
       style="fill:none;stroke:#cccccc;stroke-width:0.30000001;stroke-miterlimit:4;stroke-dasharray:none;stroke-dashoffset:0"
       id="path3353"
       cx="365"
       cy="562.36218"
       r="5" />
    <circle
       style="fill:none;stroke:#cccccc;stroke-width:0.30000001;stroke-miterlimit:4;stroke-dasharray:none;stroke-dashoffset:0"
       id="path3355"
       cx="304.51996"
       cy="-597.2804"
       r="15"
       transform="matrix(-0.5,0.8660254,-0.8660254,-0.5,0,0)" />
    <circle
       style="fill:none;stroke:#cccccc;stroke-width:0.30000001;stroke-miterlimit:4;stroke-dasharray:none;stroke-dashoffset:0"
       id="path3359"
       cx="335"
       cy="562.36218"
       r="5" />
    <circle
       style="fill:none;stroke:#cccccc;stroke-width:0.30000001;stroke-miterlimit:4;stroke-dasharray:none;stroke-dashoffset:0"
       id="path3361"
       cx="335"
       cy="552.36218"
       r="5" />
    <circle
       style="fill:none;stroke:#cccccc;stroke-width:0.30000001;stroke-miterlimit:4;stroke-dasharray:none;stroke-dashoffset:0"
       id="path3363"
       cx="365"
       cy="552.36218"
       r="5" />
    <circle
       style="fill:none;stroke:#cccccc;stroke-width:0.30000001;stroke-miterlimit:4;stroke-dasharray:none;stroke-dashoffset:0"
       id="path3365"
       cx="325"
       cy="512.36218"
       r="15" />
    <circle
       style="fill:none;stroke:#cccccc;stroke-width:0.30000001;stroke-miterlimit:4;stroke-dasharray:none;stroke-dashoffset:0"
       id="path3367"
       cx="375"
       cy="512.36218"
       r="15" />
    <circle
       style="fill:none;stroke:#cccccc;stroke-width:0.30000001;stroke-miterlimit:4;stroke-dasharray:none;stroke-dashoffset:0"
       id="path3369"
       cx="325"
       cy="532.36218"
       r="5" />
    <circle
       style="fill:none;stroke:#cccccc;stroke-width:0.30000001;stroke-miterlimit:4;stroke-dasharray:none;stroke-dashoffset:0"
       id="path3371"
       cx="375"
       cy="532.36218"
       r="5" />
    <circle
       style="fill:none;stroke:#cccccc;stroke-width:0.30000001;stroke-miterlimit:4;stroke-dasharray:none;stroke-dashoffset:0"
       id="path3373"
       cx="350"
       cy="492.36221"
       r="40" />
    <circle
       style="fill:none;stroke:#cccccc;stroke-width:0.30000001;stroke-miterlimit:4;stroke-dasharray:none;stroke-dashoffset:0"
       id="path3375"
       cx="295"
       cy="557.36218"
       r="5" />
    <circle
       style="fill:none;stroke:#cccccc;stroke-width:0.30000001;stroke-miterlimit:4;stroke-dasharray:none;stroke-dashoffset:0"
       id="path3377"
       cx="405"
       cy="557.36218"
       r="5" />
    <circle
       style="fill:none;stroke:#cccccc;stroke-width:0.30000001;stroke-miterlimit:4;stroke-dasharray:none;stroke-dashoffset:0"
       id="path3379"
       cx="620.18982"
       cy="23.203596"
       r="5"
       transform="matrix(0.5,0.8660254,-0.8660254,0.5,0,0)" />
    <circle
       style="fill:none;stroke:#cccccc;stroke-width:0.30000001;stroke-miterlimit:4;stroke-dasharray:none;stroke-dashoffset:0"
       id="path3381"
       cx="-270.18982"
       cy="629.42139"
       r="5"
       transform="matrix(0.5,-0.8660254,0.8660254,0.5,0,0)" />
    <circle
       style="fill:none;stroke:#cccccc;stroke-width:0.30000001;stroke-miterlimit:4;stroke-dasharray:none;stroke-dashoffset:0"
       id="path4197"
       cx="669.51996"
       cy="-24.91818"
       r="5"
       transform="matrix(0.5,0.8660254,-0.8660254,0.5,0,0)" />
    <circle
       style="fill:none;stroke:#cccccc;stroke-width:0.30000001;stroke-miterlimit:4;stroke-dasharray:none;stroke-dashoffset:0"
       id="path4199"
       cx="-319.51993"
       cy="581.29962"
       r="5"
       transform="matrix(0.5,-0.8660254,0.8660254,0.5,0,0)" />
    <circle
       style="fill:none;stroke:#cccccc;stroke-width:0.30000001;stroke-miterlimit:4;stroke-dasharray:none;stroke-dashoffset:0"
       id="path3343"
       cx="-685.18982"
       cy="72.059189"
       r="15"
       transform="matrix(-0.49999999,-0.86602541,0.86602541,-0.49999999,0,0)" />
    <circle
       style="fill:none;stroke:#cccccc;stroke-width:0.30000001;stroke-miterlimit:4;stroke-dasharray:none;stroke-dashoffset:0"
       id="path3341"
       cx="335.18982"
       cy="-534.15857"
       r="15"
       transform="matrix(-0.49999999,0.86602541,-0.86602541,-0.49999999,0,0)" />
    <circle
       style="fill:none;stroke:#cccccc;stroke-width:0.30000001;stroke-miterlimit:4;stroke-dasharray:none;stroke-dashoffset:0"
       id="path3357"
       cx="-654.51996"
       cy="8.9374323"
       r="15"
       transform="matrix(-0.49999999,-0.86602541,0.86602541,-0.49999999,0,0)" />
    <path
       style="fill:none;stroke:#000000"
       d="M 5 105 L 5 110 L 5 115 L 10 115 L 15 115 L 15.880859 115 A 14.999994 15 0 0 1 15.492188 113.69531 A 14.999992 15 0 0 1 15.339844 112.97656 A 14.999994 15 0 0 1 15.201172 112.25195 A 14.999992 15 0 0 1 15.117188 111.50195 A 14.999994 15 0 0 1 15.048828 110.73438 A 14.999992 15 0 0 1 15.042969 110.03906 A 14.999994 15 0 0 1 15.050781 109.24609 A 14.999992 15 0 0 1 15.115234 108.5332 A 14.999994 15 0 0 1 15.203125 107.74805 A 14.999992 15 0 0 1 15.335938 107.06055 A 14.999994 15 0 0 1 15.5 106.28711 A 14.999992 15 0 0 1 15.884766 105 L 15 105 L 10 105 L 5 105 z M 28.400391 105 A 4.9999982 5 0 0 1 28.154297 105.20703 A 4.9999976 5 0 0 1 27.972656 105.35547 A 4.9999982 5 0 0 1 27.748047 105.50781 A 4.9999976 5 0 0 1 27.5 105.66992 A 4.9999976 5 0 0 0 27.134766 105.90625 A 4.9999982 5 0 0 0 26.931641 106.05859 A 4.9999976 5 0 0 0 26.759766 106.19727 A 4.9999982 5 0 0 0 26.539062 106.39844 A 4.9999976 5 0 0 0 26.392578 106.54102 A 4.9999982 5 0 0 0 26.191406 106.76953 A 4.9999976 5 0 0 0 26.070312 106.91602 A 4.9999982 5 0 0 0 25.896484 107.1543 A 4.9999976 5 0 0 0 25.775391 107.33203 A 4.9999982 5 0 0 0 25.648438 107.55078 A 4.9999976 5 0 0 0 25.523438 107.78125 A 4.9999982 5 0 0 0 25.433594 107.97656 A 4.9999976 5 0 0 0 25.322266 108.24219 A 4.9999982 5 0 0 0 25.253906 108.44727 A 4.9999976 5 0 0 0 25.171875 108.71289 A 4.9999982 5 0 0 0 25.119141 108.94336 A 4.9999976 5 0 0 0 25.068359 109.20117 A 4.9999982 5 0 0 0 25.041016 109.41602 A 4.9999976 5 0 0 0 25.011719 109.70508 A 4.9999982 5 0 0 0 25.005859 109.92578 A 4.9999976 5 0 0 0 25.007812 110.19336 A 4.9999982 5 0 0 0 25.025391 110.44336 A 4.9999976 5 0 0 0 25.050781 110.68359 A 4.9999982 5 0 0 0 25.097656 110.95508 A 4.9999976 5 0 0 0 25.140625 111.16797 A 4.9999982 5 0 0 0 25.216797 111.43555 A 4.9999976 5 0 0 0 25.287109 111.6582 A 4.9999982 5 0 0 0 25.375 111.88281 A 4.9999976 5 0 0 0 25.476562 112.12305 A 4.9999982 5 0 0 0 25.669922 112.5 A 4.9999976 5 0 0 0 25.869141 112.80859 A 4.9999982 5 0 0 0 26.015625 113.01172 A 4.9999976 5 0 0 0 26.171875 113.20898 A 4.9999982 5 0 0 0 26.328125 113.38477 A 4.9999976 5 0 0 0 26.517578 113.58008 A 4.9999982 5 0 0 0 26.697266 113.74609 A 4.9999976 5 0 0 0 26.876953 113.89844 A 4.9999982 5 0 0 0 27.076172 114.04883 A 4.9999976 5 0 0 0 27.308594 114.20508 A 4.9999982 5 0 0 0 27.496094 114.31836 A 4.9999976 5 0 0 0 27.722656 114.44141 A 4.9999982 5 0 0 0 27.951172 114.55273 A 4.9999976 5 0 0 0 28.173828 114.64648 A 4.9999982 5 0 0 0 28.412109 114.73242 A 4.9999976 5 0 0 0 28.648438 114.80664 A 4.9999982 5 0 0 0 28.902344 114.87109 A 4.9999976 5 0 0 0 29.121094 114.91406 A 4.9999982 5 0 0 0 29.400391 114.95508 A 4.9999976 5 0 0 0 29.626953 114.97656 A 4.9999982 5 0 0 0 30 114.99609 L 30 115 L 35 115 L 44.123047 115 L 55 115 L 55 110 L 55 105 L 45 105 L 35 105 L 28.400391 105 z M 65 105 L 65 110 L 65 115 L 65.003906 115 L 105 115 L 105 109.76367 L 105 105 L 65 105 z M 115.00781 105 L 115.00781 110 L 115.00781 115 L 125.90039 115 L 135 115 L 140 115 L 140 114.99414 A 4.9999976 5 0 0 0 140.35547 114.97656 A 4.9999982 5 0 0 0 140.62305 114.95312 A 4.9999976 5 0 0 0 140.87109 114.91406 A 4.9999982 5 0 0 0 141.10352 114.86914 A 4.9999976 5 0 0 0 141.37109 114.80078 A 4.9999982 5 0 0 0 141.56445 114.74219 A 4.9999976 5 0 0 0 141.85742 114.63672 A 4.9999982 5 0 0 0 142.03125 114.56445 A 4.9999976 5 0 0 0 142.30469 114.43164 A 4.9999982 5 0 0 0 142.48438 114.33398 A 4.9999976 5 0 0 0 142.73633 114.17969 A 4.9999982 5 0 0 0 142.89648 114.07227 A 4.9999976 5 0 0 0 143.13281 113.89453 A 4.9999982 5 0 0 0 143.30859 113.74805 A 4.9999976 5 0 0 0 143.50195 113.56836 A 4.9999982 5 0 0 0 143.66016 113.40625 A 4.9999976 5 0 0 0 143.84766 113.19336 A 4.9999982 5 0 0 0 143.98047 113.02734 A 4.9999976 5 0 0 0 144.13867 112.80664 A 4.9999982 5 0 0 0 144.33789 112.5 A 4.9999976 5 0 0 0 144.53125 112.12305 A 4.9999982 5 0 0 0 144.63281 111.88281 A 4.9999976 5 0 0 0 144.72266 111.6582 A 4.9999982 5 0 0 0 144.78906 111.44531 A 4.9999976 5 0 0 0 144.86719 111.16406 A 4.9999982 5 0 0 0 144.9082 110.96094 A 4.9999976 5 0 0 0 144.95703 110.68359 A 4.9999982 5 0 0 0 144.98242 110.44531 A 4.9999976 5 0 0 0 145 110.19141 A 4.9999982 5 0 0 0 145.00195 109.94922 A 4.9999976 5 0 0 0 144.99414 109.68164 A 4.9999982 5 0 0 0 144.97266 109.45703 A 4.9999976 5 0 0 0 144.93945 109.19531 A 4.9999982 5 0 0 0 144.88672 108.9375 A 4.9999976 5 0 0 0 144.83789 108.71875 A 4.9999982 5 0 0 0 144.75 108.43555 A 4.9999976 5 0 0 0 144.68555 108.24414 A 4.9999982 5 0 0 0 144.57422 107.97656 A 4.9999976 5 0 0 0 144.48438 107.78125 A 4.9999982 5 0 0 0 144.35938 107.55078 A 4.9999976 5 0 0 0 144.23438 107.33398 A 4.9999982 5 0 0 0 144.08984 107.125 A 4.9999976 5 0 0 0 143.95703 106.93945 A 4.9999982 5 0 0 0 143.76953 106.71484 A 4.9999976 5 0 0 0 143.62891 106.55859 A 4.9999982 5 0 0 0 143.43555 106.36719 A 4.9999976 5 0 0 0 143.26172 106.20898 A 4.9999982 5 0 0 0 143.06055 106.04688 A 4.9999976 5 0 0 0 142.87305 105.90625 A 4.9999982 5 0 0 0 142.50781 105.66992 A 4.9999982 5 0 0 1 142.24609 105.49805 A 4.9999976 5 0 0 1 142.04688 105.36133 A 4.9999982 5 0 0 1 141.83203 105.1875 A 4.9999976 5 0 0 1 141.61133 105 L 135.00781 105 L 135 105 L 125.00781 105 L 115.00781 105 z M 154.11914 105 A 14.999994 15 0 0 1 154.47461 106.1875 A 14.999992 15 0 0 1 154.625 106.83398 A 14.999994 15 0 0 1 154.79297 107.69531 A 14.999992 15 0 0 1 154.86914 108.2832 A 14.999994 15 0 0 1 154.95117 109.19531 A 14.999992 15 0 0 1 154.9668 109.72852 A 14.999994 15 0 0 1 154.95898 110.73633 A 14.999992 15 0 0 1 154.92773 111.17773 A 14.999994 15 0 0 1 154.8125 112.22852 A 14.999992 15 0 0 1 154.73828 112.66211 A 14.999994 15 0 0 1 154.51562 113.71094 A 14.999992 15 0 0 1 154.38867 114.16992 A 14.999994 15 0 0 1 154.13672 114.99023 A 14.999994 15 0 0 1 154.13281 115 L 155 115 L 160 115 L 165 115 L 165 110 L 165 105 L 160 105 L 155 105 L 154.11914 105 z "
       transform="translate(265,447.3622)"
       id="rect4476" />
    <path
       style="fill:none;stroke:#000000"
       d="M 85 5 A 39.999985 40 0 0 0 45.037109 43.9375 A 14.999994 15 0 0 0 45 45 L 45 65 A 14.999994 15 0 0 0 60 80 A 4.9999982 5 0 0 1 65 85 A 4.9999982 5 0 0 1 60 90 L 50 90 A 14.999994 15 0 0 0 35 105 L 45 105 A 4.9999982 5 0 0 1 50 100 A 4.9999982 5 0 0 1 55 105 L 55 110 L 55 115 L 55.009766 115 A 14.999994 15 0 0 0 59.392578 125.60742 A 14.999994 15 0 0 0 59.535156 125.73633 A 14.999994 15 0 0 0 59.742188 125.92188 A 14.999994 15 0 0 0 60.638672 126.71094 A 14.999994 15 0 0 0 61.033203 127.00195 A 14.999994 15 0 0 0 61.822266 127.56641 A 14.999994 15 0 0 0 62.5 127.99023 A 14.999994 15 0 0 0 62.767578 128.12695 A 14.999994 15 0 0 0 63.433594 128.4668 A 14.999994 15 0 0 0 64.080078 128.76758 A 14.999994 15 0 0 0 64.833984 129.0625 A 14.999994 15 0 0 0 65.492188 129.29102 A 14.999994 15 0 0 0 66.251953 129.50391 A 14.999994 15 0 0 0 66.933594 129.66797 A 14.999994 15 0 0 0 67.765625 129.8125 A 14.999994 15 0 0 0 68.388672 129.89648 A 14.999994 15 0 0 0 69.271484 129.96094 A 14.999994 15 0 0 0 69.876953 129.98242 A 14.999994 15 0 0 0 70.789062 129.95703 A 14.999994 15 0 0 0 71.365234 129.91992 A 14.999994 15 0 0 0 72.273438 129.80469 A 14.999994 15 0 0 0 72.853516 129.70703 A 14.999994 15 0 0 0 73.751953 129.5 A 14.999994 15 0 0 0 74.294922 129.35156 A 14.999994 15 0 0 0 75.212891 129.03906 A 14.999994 15 0 0 0 75.685547 128.85938 A 14.999994 15 0 0 0 76.583984 128.45117 A 14.999994 15 0 0 0 77.054688 128.21484 A 14.999994 15 0 0 0 77.917969 127.70898 A 14.999994 15 0 0 0 78.314453 127.45898 A 14.999994 15 0 0 0 79.158203 126.84766 A 14.999994 15 0 0 0 79.515625 126.56836 A 14.999994 15 0 0 0 80.34375 125.85352 A 14.999994 15 0 0 0 80.349609 125.84766 A 4.9999982 5 0 0 0 80.607422 125.60547 A 4.9999982 5 0 0 0 81.033203 125.11328 A 14.999994 15 0 0 0 82.753906 122.86719 A 4.9999982 5 0 0 0 82.990234 122.5 A 4.9999982 5 0 0 0 81.160156 115.66992 A 4.9999982 5 0 0 0 74.330078 117.5 A 4.9999982 5 0 0 1 73.476562 118.58984 A 4.9999982 5 0 0 1 73.265625 118.7793 A 4.9999982 5 0 0 1 73.09375 118.92383 A 4.9999982 5 0 0 1 72.884766 119.07617 A 4.9999982 5 0 0 1 72.679688 119.2168 A 4.9999982 5 0 0 1 72.458984 119.3457 A 4.9999982 5 0 0 1 72.251953 119.45703 A 4.9999982 5 0 0 1 72.013672 119.57031 A 4.9999982 5 0 0 1 71.792969 119.66211 A 4.9999982 5 0 0 1 71.539062 119.75 A 4.9999982 5 0 0 1 71.322266 119.81641 A 4.9999982 5 0 0 1 71.074219 119.875 A 4.9999982 5 0 0 1 70.822266 119.92578 A 4.9999982 5 0 0 1 70.566406 119.95898 A 4.9999982 5 0 0 1 70.347656 119.98047 A 4.9999982 5 0 0 1 70.056641 119.99219 A 4.9999982 5 0 0 1 69.837891 119.99023 A 4.9999982 5 0 0 1 69.582031 119.97461 A 4.9999982 5 0 0 1 69.333984 119.94922 A 4.9999982 5 0 0 1 69.072266 119.90625 A 4.9999982 5 0 0 1 68.859375 119.86133 A 4.9999982 5 0 0 1 68.578125 119.78516 A 4.9999982 5 0 0 1 68.371094 119.7207 A 4.9999982 5 0 0 1 68.123047 119.62891 A 4.9999982 5 0 0 1 67.90625 119.53711 A 4.9999982 5 0 0 1 67.564453 119.36328 A 4.9999982 5 0 0 1 67.53125 119.34766 A 4.9999982 5 0 0 1 67.230469 119.15625 A 4.9999982 5 0 0 1 67.107422 119.07617 A 4.9999982 5 0 0 1 66.876953 118.89453 A 4.9999982 5 0 0 1 66.701172 118.75586 A 4.9999982 5 0 0 1 66.654297 118.71094 A 4.9999982 5 0 0 1 66.398438 118.46289 A 4.9999982 5 0 0 1 66.226562 118.26953 A 4.9999982 5 0 0 1 66.080078 118.0957 A 4.9999982 5 0 0 1 65.923828 117.88477 A 4.9999982 5 0 0 1 65.779297 117.66797 A 4.9999982 5 0 0 1 65.667969 117.48047 A 4.9999982 5 0 0 1 65.535156 117.23828 A 4.9999982 5 0 0 1 65.439453 117.03125 A 4.9999982 5 0 0 1 65.335938 116.78125 A 4.9999982 5 0 0 1 65.255859 116.55273 A 4.9999982 5 0 0 1 65.183594 116.31445 A 4.9999982 5 0 0 1 65.125 116.07617 A 4.9999982 5 0 0 1 65.074219 115.82031 A 4.9999982 5 0 0 1 65.042969 115.58008 A 4.9999982 5 0 0 1 65.017578 115.30664 A 4.9999982 5 0 0 1 65.003906 115 L 65 115 L 65 110 L 65 105 A 4.9999982 5 0 0 1 70 100 L 84.123047 100 L 85.875 100 L 100 100 A 4.9999982 5 0 0 1 105 105 L 105 109.76367 A 4.9999982 5 0 0 1 105.00781 110 L 105.00781 115 L 105.00391 115 A 4.9999982 5 0 0 1 104.99023 115.30664 A 4.9999982 5 0 0 1 104.96484 115.58008 A 4.9999982 5 0 0 1 104.93359 115.82031 A 4.9999982 5 0 0 1 104.88281 116.07617 A 4.9999982 5 0 0 1 104.82422 116.31445 A 4.9999982 5 0 0 1 104.75195 116.55273 A 4.9999982 5 0 0 1 104.67188 116.78125 A 4.9999982 5 0 0 1 104.56836 117.03125 A 4.9999982 5 0 0 1 104.47266 117.23828 A 4.9999982 5 0 0 1 104.33984 117.48047 A 4.9999982 5 0 0 1 104.22852 117.66797 A 4.9999982 5 0 0 1 104.08398 117.88477 A 4.9999982 5 0 0 1 103.92773 118.0957 A 4.9999982 5 0 0 1 103.78125 118.26953 A 4.9999982 5 0 0 1 103.60938 118.46289 A 4.9999982 5 0 0 1 103.35352 118.71094 A 4.9999982 5 0 0 1 103.30664 118.75586 A 4.9999982 5 0 0 1 103.13086 118.89453 A 4.9999982 5 0 0 1 102.90039 119.07617 A 4.9999982 5 0 0 1 102.77734 119.15625 A 4.9999982 5 0 0 1 102.47656 119.34766 A 4.9999982 5 0 0 1 102.44336 119.36328 A 4.9999982 5 0 0 1 102.10156 119.53711 A 4.9999982 5 0 0 1 101.88477 119.62891 A 4.9999982 5 0 0 1 101.63672 119.72266 A 4.9999982 5 0 0 1 101.42969 119.78516 A 4.9999982 5 0 0 1 101.14844 119.86328 A 4.9999982 5 0 0 1 100.93555 119.90625 A 4.9999982 5 0 0 1 100.67383 119.95117 A 4.9999982 5 0 0 1 100.42578 119.97656 A 4.9999982 5 0 0 1 100.16992 119.99219 A 4.9999982 5 0 0 1 99.951172 119.99414 A 4.9999982 5 0 0 1 99.660156 119.98242 A 4.9999982 5 0 0 1 99.441406 119.96094 A 4.9999982 5 0 0 1 99.185547 119.92773 A 4.9999982 5 0 0 1 98.933594 119.87695 A 4.9999982 5 0 0 1 98.685547 119.81641 A 4.9999982 5 0 0 1 98.46875 119.75 A 4.9999982 5 0 0 1 98.214844 119.66211 A 4.9999982 5 0 0 1 97.994141 119.57031 A 4.9999982 5 0 0 1 97.755859 119.45898 A 4.9999982 5 0 0 1 97.548828 119.3457 A 4.9999982 5 0 0 1 97.328125 119.2168 A 4.9999982 5 0 0 1 97.123047 119.07617 A 4.9999982 5 0 0 1 96.914062 118.92383 A 4.9999982 5 0 0 1 96.742188 118.7793 A 4.9999982 5 0 0 1 96.53125 118.58984 A 4.9999982 5 0 0 1 95.677734 117.5 A 4.9999982 5 0 0 0 88.847656 115.66992 A 4.9999982 5 0 0 0 87.017578 122.5 A 4.9999982 5 0 0 0 87.253906 122.86719 A 14.999994 15 0 0 0 88.974609 125.11328 A 4.9999982 5 0 0 0 89.400391 125.60547 A 4.9999982 5 0 0 0 89.658203 125.84766 A 14.999994 15 0 0 0 89.664062 125.85352 A 14.999994 15 0 0 0 90.492188 126.56836 A 14.999994 15 0 0 0 90.849609 126.84766 A 14.999994 15 0 0 0 91.693359 127.45898 A 14.999994 15 0 0 0 92.089844 127.70898 A 14.999994 15 0 0 0 92.953125 128.21484 A 14.999994 15 0 0 0 93.423828 128.45117 A 14.999994 15 0 0 0 94.322266 128.85938 A 14.999994 15 0 0 0 94.794922 129.03906 A 14.999994 15 0 0 0 95.712891 129.35156 A 14.999994 15 0 0 0 96.255859 129.5 A 14.999994 15 0 0 0 97.154297 129.70703 A 14.999994 15 0 0 0 97.734375 129.80469 A 14.999994 15 0 0 0 98.642578 129.91992 A 14.999994 15 0 0 0 99.21875 129.95703 A 14.999994 15 0 0 0 100.13086 129.98242 A 14.999994 15 0 0 0 100.73633 129.96094 A 14.999994 15 0 0 0 101.61914 129.89648 A 14.999994 15 0 0 0 102.24219 129.8125 A 14.999994 15 0 0 0 103.07422 129.66797 A 14.999994 15 0 0 0 103.75586 129.50391 A 14.999994 15 0 0 0 104.51562 129.29102 A 14.999994 15 0 0 0 105.17383 129.0625 A 14.999994 15 0 0 0 105.92773 128.76758 A 14.999994 15 0 0 0 106.57422 128.4668 A 14.999994 15 0 0 0 107.24023 128.12695 A 14.999994 15 0 0 0 107.50781 127.99023 A 14.999994 15 0 0 0 108.18555 127.56641 A 14.999994 15 0 0 0 108.97461 127.00195 A 14.999994 15 0 0 0 109.36914 126.71094 A 14.999994 15 0 0 0 110.26562 125.92188 A 14.999994 15 0 0 0 110.47266 125.73633 A 14.999994 15 0 0 0 110.61523 125.60742 A 14.999994 15 0 0 0 114.99805 115 L 115.00781 115 L 115.00781 110 L 115.00781 105 A 4.9999982 5 0 0 1 120.00781 100 A 4.9999982 5 0 0 1 125.00781 105 L 135 105 L 135.00781 105 A 14.999994 15 0 0 0 135 104.8418 A 14.999994 15 0 0 0 120.00781 90 A 14.999994 15 0 0 0 120 90 L 119.9707 90 L 110 90 A 4.9999982 5 0 0 1 105 85 A 4.9999982 5 0 0 1 110 80 A 14.999994 15 0 0 0 125 65 L 125 45 A 39.999985 40 0 0 0 124.92578 43.501953 A 14.999994 15 0 0 0 124.92578 43.496094 A 39.999985 40 0 0 0 85 5 z M 65 55 A 9.9999964 10 0 0 1 75 65 A 9.9999964 10 0 0 1 65 75 A 9.9999964 10 0 0 1 55 65 A 9.9999964 10 0 0 1 65 55 z M 105 55 A 9.9999964 10 0 0 1 115 65 A 9.9999964 10 0 0 1 105 75 A 9.9999964 10 0 0 1 95 65 A 9.9999964 10 0 0 1 105 55 z M 65 60 A 4.9999982 5 0 0 0 60 65 A 4.9999982 5 0 0 0 65 70 A 4.9999982 5 0 0 0 70 65 A 4.9999982 5 0 0 0 65 60 z M 105 60 A 4.9999982 5 0 0 0 100 65 A 4.9999982 5 0 0 0 105 70 A 4.9999982 5 0 0 0 110 65 A 4.9999982 5 0 0 0 105 60 z M 145.12695 96.339844 A 4.9999982 5 0 0 0 144.77148 96.345703 A 4.9999982 5 0 0 0 143.7832 96.492188 A 4.9999982 5 0 0 0 142.40625 97.070312 A 4.9999982 5 0 0 0 141.60938 97.671875 A 4.9999982 5 0 0 0 140.67773 98.839844 A 4.9999982 5 0 0 0 140.45117 99.283203 A 4.9999982 5 0 0 0 140.44922 99.285156 A 4.9999982 5 0 0 0 141.61133 105 A 4.9999982 5 0 0 0 142.50781 105.66992 A 4.9999982 5 0 0 1 144.33789 112.5 A 4.9999982 5 0 0 1 140 114.99414 L 140 115 L 135 115 L 125.90039 115 A 14.999994 15 0 0 0 132.50781 122.99023 A 14.999994 15 0 0 0 135 124.12695 A 14.999994 15 0 0 0 136.40625 124.54688 A 14.999994 15 0 0 0 136.44141 124.55859 A 14.999994 15 0 0 0 137.85156 124.83008 A 14.999994 15 0 0 0 137.91992 124.84375 A 14.999994 15 0 0 0 139.35352 124.97266 A 14.999994 15 0 0 0 139.41211 124.97656 A 14.999994 15 0 0 0 140.82617 124.96289 A 14.999994 15 0 0 0 140.91602 124.96094 A 14.999994 15 0 0 0 142.21094 124.82031 A 14.999994 15 0 0 0 142.42969 124.79297 A 14.999994 15 0 0 0 143.71289 124.51953 A 14.999994 15 0 0 0 143.88477 124.47852 A 14.999994 15 0 0 0 145.05469 124.10742 A 14.999994 15 0 0 0 145.33594 124.01172 A 14.999994 15 0 0 0 146.4043 123.54883 A 14.999994 15 0 0 0 146.71289 123.4082 A 14.999994 15 0 0 0 147.7168 122.8457 A 14.999994 15 0 0 0 148.01758 122.67188 A 14.999994 15 0 0 0 148.91406 122.04883 A 14.999994 15 0 0 0 149.25781 121.79883 A 14.999994 15 0 0 0 150.01562 121.14844 A 14.999994 15 0 0 0 150.40039 120.80469 A 14.999994 15 0 0 0 151.04297 120.13281 A 14.999994 15 0 0 0 151.43164 119.70898 A 14.999994 15 0 0 0 151.96484 119.02539 A 14.999994 15 0 0 0 152.36328 118.49609 A 14.999994 15 0 0 0 152.99805 117.5 A 14.999994 15 0 0 0 154.11914 105 A 14.999994 15 0 0 0 153.57422 103.67383 A 14.999994 15 0 0 0 153.5293 103.57422 A 14.999994 15 0 0 0 152.9082 102.41016 A 14.999994 15 0 0 0 152.79883 102.2207 A 14.999994 15 0 0 0 152.12109 101.20898 A 14.999994 15 0 0 0 151.93164 100.94922 A 14.999994 15 0 0 0 151.23242 100.10156 A 14.999994 15 0 0 0 150.93555 99.767578 A 14.999994 15 0 0 0 150.25 99.085938 A 14.999994 15 0 0 0 149.82617 98.695312 A 14.999994 15 0 0 0 149.14648 98.146484 A 14.999994 15 0 0 0 148.57227 97.716797 A 14.999994 15 0 0 0 147.875 97.246094 A 4.9999982 5 0 0 0 147.50781 97.009766 A 4.9999982 5 0 0 0 145.625 96.376953 A 4.9999982 5 0 0 0 145.12695 96.339844 z M 24.736328 96.345703 A 4.9999982 5 0 0 0 24.238281 96.396484 A 4.9999982 5 0 0 0 23.273438 96.646484 A 4.9999982 5 0 0 0 22.5 97.009766 A 4.9999982 5 0 0 0 22.132812 97.246094 A 14.999994 15 0 0 0 15.884766 105 A 14.999994 15 0 0 0 15.880859 115 A 14.999994 15 0 0 0 16.378906 116.23438 A 14.999994 15 0 0 0 16.53125 116.56445 A 14.999994 15 0 0 0 17.009766 117.5 A 14.999994 15 0 0 0 17.824219 118.75781 A 14.999994 15 0 0 0 18.238281 119.2793 A 14.999994 15 0 0 0 35 124.13086 A 14.999994 15 0 0 0 37.5 122.99023 A 14.999994 15 0 0 0 44.123047 115 L 35 115 L 30 115 L 30 114.99609 A 4.9999982 5 0 0 1 25.669922 112.5 A 4.9999982 5 0 0 1 27.5 105.66992 A 4.9999982 5 0 0 0 28.400391 105 A 4.9999982 5 0 0 0 28.748047 104.64258 A 4.9999982 5 0 0 0 28.75 104.64062 A 4.9999982 5 0 0 0 28.755859 104.63281 A 4.9999982 5 0 0 0 29.056641 104.25586 A 4.9999982 5 0 0 0 29.060547 104.25 A 4.9999982 5 0 0 0 29.072266 104.23047 A 4.9999982 5 0 0 0 29.318359 103.84961 A 4.9999982 5 0 0 0 29.365234 103.76562 A 4.9999982 5 0 0 0 29.548828 103.40234 A 4.9999982 5 0 0 0 29.580078 103.32812 A 4.9999982 5 0 0 0 29.730469 102.94336 A 4.9999982 5 0 0 0 29.761719 102.8457 A 4.9999982 5 0 0 0 29.867188 102.46875 A 4.9999982 5 0 0 0 29.892578 102.33789 A 4.9999982 5 0 0 0 29.953125 101.98633 A 4.9999982 5 0 0 0 29.96875 101.83203 A 4.9999982 5 0 0 0 29.994141 101.48047 A 4.9999982 5 0 0 0 29.994141 101.3418 A 4.9999982 5 0 0 0 29.984375 100.99219 A 4.9999982 5 0 0 0 29.964844 100.80664 A 4.9999982 5 0 0 0 29.927734 100.50781 A 4.9999982 5 0 0 0 29.884766 100.29883 A 4.9999982 5 0 0 0 29.818359 100.01562 A 4.9999982 5 0 0 0 29.75 99.796875 A 4.9999982 5 0 0 0 29.669922 99.558594 A 4.9999982 5 0 0 0 29.568359 99.320312 A 4.9999982 5 0 0 0 29.455078 99.074219 A 4.9999982 5 0 0 0 29.330078 98.839844 A 4.9999982 5 0 0 0 28.398438 97.671875 A 4.9999982 5 0 0 0 25.236328 96.345703 A 4.9999982 5 0 0 0 24.736328 96.345703 z "
       transform="translate(265,447.3622)"
       id="path4531" />
    <text
       xml:space="preserve"
       style="font-style:normal;font-variant:normal;font-weight:normal;font-stretch:normal;font-size:5.00000048px;line-height:125%;font-family:monospace;-inkscape-font-specification:monospace;letter-spacing:0px;word-spacing:0px;fill:#000000;fill-opacity:1;stroke:none;stroke-width:1px;stroke-linecap:butt;stroke-linejoin:miter;stroke-opacity:1"
       x="406.64233"
       y="556.5528"
       id="text4490"
       sodipodi:linespacing="125%"><tspan
         sodipodi:role="line"
         id="tspan4492"
         x="406.64233"
         y="556.5528" /></text>
    <text
       xml:space="preserve"
       style="font-style:normal;font-variant:normal;font-weight:normal;font-stretch:normal;font-size:2.50000024px;line-height:125%;font-family:Arial;-inkscape-font-specification:'Arial, Normal';text-align:start;letter-spacing:0px;word-spacing:0px;writing-mode:lr-tb;text-anchor:start;fill:#808080;fill-opacity:1;stroke:none;stroke-width:1px;stroke-linecap:butt;stroke-linejoin:miter;stroke-opacity:1"
       x="406.75601"
       y="556.48169"
       id="text4494"
       sodipodi:linespacing="125%"><tspan
         sodipodi:role="line"
         id="tspan4498"
         x="406.75601"
         y="556.48169">60째</tspan></text>
    <text
       xml:space="preserve"
       style="font-style:normal;font-variant:normal;font-weight:normal;font-stretch:normal;font-size:2.50000024px;line-height:125%;font-family:Arial;-inkscape-font-specification:'Arial, Normal';text-align:start;letter-spacing:0px;word-spacing:0px;writing-mode:lr-tb;text-anchor:start;display:inline;fill:#808080;fill-opacity:1;stroke:none;stroke-width:1px;stroke-linecap:butt;stroke-linejoin:miter;stroke-opacity:1"
       x="289.53305"
       y="556.48175"
       id="text4494-4"
       sodipodi:linespacing="125%"><tspan
         sodipodi:role="line"
         id="tspan4498-5"
         x="289.53305"
         y="556.48175">60째</tspan></text>
    <text
       xml:space="preserve"
       style="font-style:normal;font-variant:normal;font-weight:normal;font-stretch:normal;font-size:2.50000024px;line-height:125%;font-family:Arial;-inkscape-font-specification:'Arial, Normal';text-align:start;letter-spacing:0px;word-spacing:0px;writing-mode:lr-tb;text-anchor:start;display:inline;fill:#808080;fill-opacity:1;stroke:none;stroke-width:1px;stroke-linecap:butt;stroke-linejoin:miter;stroke-opacity:1"
       x="360.53302"
       y="567.03229"
       id="text4494-0"
       sodipodi:linespacing="125%"><tspan
         sodipodi:role="line"
         id="tspan4498-7"
         x="360.53302"
         y="567.03229">60째</tspan></text>
    <text
       xml:space="preserve"
       style="font-style:normal;font-variant:normal;font-weight:normal;font-stretch:normal;font-size:2.50000024px;line-height:125%;font-family:Arial;-inkscape-font-specification:'Arial, Normal';text-align:start;letter-spacing:0px;word-spacing:0px;writing-mode:lr-tb;text-anchor:start;display:inline;fill:#808080;fill-opacity:1;stroke:none;stroke-width:1px;stroke-linecap:butt;stroke-linejoin:miter;stroke-opacity:1"
       x="335.75598"
       y="567.03229"
       id="text4494-0-9"
       sodipodi:linespacing="125%"><tspan
         sodipodi:role="line"
         id="tspan4498-7-5"
         x="335.75598"
         y="567.03229">60째</tspan></text>
    <path
       style="fill:none;fill-rule:evenodd;stroke:#e6e6e6;stroke-width:0.30000001;stroke-linecap:butt;stroke-linejoin:miter;stroke-miterlimit:4;stroke-dasharray:none;stroke-opacity:1"
       d="m 365,562.36219 -8.66026,5"
       id="path4428"
       inkscape:connector-curvature="0" />
    <path
       style="fill:none;fill-rule:evenodd;stroke:#e6e6e6;stroke-width:0.30000001;stroke-linecap:butt;stroke-linejoin:miter;stroke-miterlimit:4;stroke-dasharray:none;stroke-opacity:1"
       d="m 335.00003,562.36222 8.66025,5"
       id="path4430"
       inkscape:connector-curvature="0" />
    <path
       style="fill:none;fill-rule:evenodd;stroke:#e6e6e6;stroke-width:0.30000001;stroke-linecap:butt;stroke-linejoin:miter;stroke-miterlimit:4;stroke-dasharray:none;stroke-opacity:1"
       d="m 294.99999,557.36219 -5,-8.66025"
       id="path4426"
       inkscape:connector-curvature="0" />
    <path
       style="fill:none;fill-rule:evenodd;stroke:#e6e6e6;stroke-width:0.30000001;stroke-linecap:butt;stroke-linejoin:miter;stroke-miterlimit:4;stroke-dasharray:none;stroke-opacity:1"
       d="m 405.00001,557.3622 5,-8.66026"
       id="path4424"
       inkscape:connector-curvature="0" />
  </g>
</svg>
