<svg id="9b9eceb1-e42d-4a9b-8baf-04d19b89232d" data-name="svg2" xmlns="http://www.w3.org/2000/svg" xmlns:xlink="http://www.w3.org/1999/xlink" viewBox="0 0 1569.69 138"><defs><style>.\35 81b16c8-af45-4d09-a4af-27e1aa6cda34{fill:#4080ff;}.\33 78a30ab-6dbb-4802-a238-776177549141{fill:url(#b7e7fda0-a661-4e17-9a07-ea6562841481);}.\30 e515e5c-5a80-423f-bea9-8a8b153c75a4{isolation:isolate;}.ab7bf8f3-2518-4011-acf1-27e269ac4ee0{fill:#fff;}.f7febb28-c8fa-4685-8fbf-316967e8d1c6{fill:gray;}</style><linearGradient id="b7e7fda0-a661-4e17-9a07-ea6562841481" x1="321.09" y1="-1229.95" x2="401.09" y2="-1310.2" gradientTransform="matrix(0.8, 0, 0, -0.8, -238.61, -957.09)" gradientUnits="userSpaceOnUse"><stop offset="0" stop-color="#444"/><stop offset="1"/></linearGradient></defs><title>logo</title><polygon class="581b16c8-af45-4d09-a4af-27e1aa6cda34" points="194.4 90 35.8 90 19.4 90 3.2 90 3.2 94 3.2 98 19.5 98 35.8 98 191.7 98 194.4 90"/><path id="350ea8fd-65fa-4559-954e-b0808ba1cf4a" data-name="path4531" class="378a30ab-6dbb-4802-a238-776177549141" d="M67.2,10a32.06,32.06,0,0,0-32,31.2V58a12,12,0,0,0,12,12h0a4,4,0,0,1,0,8h-8a12,12,0,0,0-12,12h8a4,4,0,0,1,8,0v8h0a12.3,12.3,0,0,0,3.5,8.5l.1.1c.1.1.1.1.2.1.2.2.5.4.7.6s.2.2.3.2c.2.2.4.3.6.5a2.19,2.19,0,0,1,.5.3c.1,0,.1.1.2.1a2.19,2.19,0,0,1,.5.3c.2.1.3.2.5.2a1.42,1.42,0,0,0,.6.2c.2.1.3.1.5.2s.4.1.6.2a4.33,4.33,0,0,1,.5.1c.2,0,.4.1.7.1a.9.9,0,0,1,.5.1,1.7,1.7,0,0,1,.7.1h1.7c.2,0,.5-.1.7-.1a.9.9,0,0,0,.5-.1,1.85,1.85,0,0,0,.7-.2c.1,0,.3-.1.4-.1s.5-.2.7-.3.3-.1.4-.1.5-.2.7-.3.3-.1.4-.2.5-.3.7-.4.2-.1.3-.2.5-.3.7-.5.2-.1.3-.2a4.35,4.35,0,0,1,.7-.6h0l.2-.2c.1-.1.2-.3.3-.4a22,22,0,0,0,1.4-1.8c.1-.1.1-.2.2-.3a4,4,0,1,0-7-4,5.5,5.5,0,0,1-.7.9l-.2.2-.1.1c-.1,0-.1.1-.2.1s-.1.1-.2.1-.1.1-.2.1-.1.1-.2.1-.1.1-.2.1-.1.1-.2.1-.1,0-.2.1-.1,0-.2.1h-2c-.1,0-.2,0-.2-.1s-.1,0-.2-.1-.1,0-.2-.1-.1,0-.2-.1-.2-.1-.3-.1h0a.22.22,0,0,1-.2-.2.1.1,0,0,1-.1-.1c-.1,0-.1-.1-.2-.1l-.1-.1h0l-.2-.2c0-.1-.1-.1-.1-.2l-.1-.1c0-.1-.1-.1-.1-.2s-.1-.1-.1-.2l-.1-.1c0-.1-.1-.1-.1-.2s-.1-.1-.1-.2-.1-.1-.1-.2,0-.1-.1-.2,0-.1-.1-.2v-1h0v-8a4,4,0,0,1,4-4h24a4,4,0,0,1,4,4v8h0v1c0,.1,0,.1-.1.2s0,.1-.1.2-.1.1-.1.2,0,.1-.1.2-.1.1-.1.2-.1.1-.1.2-.1.1-.1.2-.1.1-.1.2l-.1.1c0,.1-.1.1-.1.2l-.2.2h0l-.1.1c-.1.1-.1.1-.2.1a.1.1,0,0,0-.1.1c-.1.1-.2.1-.2.2h0c-.1,0-.2.1-.3.1s-.1.1-.2.1-.1.1-.2.1-.1,0-.2.1-.1,0-.2.1H78c-.1,0-.1,0-.2-.1s-.1,0-.2-.1-.1,0-.2-.1-.1-.1-.2-.1-.1-.1-.2-.1-.1-.1-.2-.1-.1-.1-.2-.1-.1-.1-.2-.1l-.1-.1c-.1,0-.1-.1-.2-.2a5.5,5.5,0,0,1-.7-.9,4,4,0,1,0-7,4c.1.1.1.2.2.3a22,22,0,0,0,1.4,1.8c.1.1.2.3.3.4l.2.2h0a4.35,4.35,0,0,0,.7.6c.1.1.2.2.3.2a4.23,4.23,0,0,0,.7.5c.1.1.2.1.3.2s.5.3.7.4.2.1.4.2.5.2.7.3a.6.6,0,0,0,.4.1c.2.1.5.2.7.3s.3.1.4.1.5.1.7.2.3.1.5.1.5.1.7.1h1.7a1.7,1.7,0,0,0,.7-.1.9.9,0,0,0,.5-.1c.2,0,.4-.1.7-.1a4.33,4.33,0,0,0,.5-.1c.2-.1.4-.1.6-.2s.4-.1.5-.2a1.42,1.42,0,0,1,.6-.2c.2-.1.3-.2.5-.2a2.19,2.19,0,0,0,.5-.3c.1,0,.1-.1.2-.1a2.19,2.19,0,0,0,.5-.3,2.65,2.65,0,0,0,.6-.5c.1-.1.2-.2.3-.2.2-.2.5-.4.7-.6.1,0,.1-.1.2-.1l.1-.1a12.3,12.3,0,0,0,3.5-8.5h0v-8a4,4,0,0,1,8,0h8a12,12,0,0,0-12-12h-8a4,4,0,0,1,0-8,12,12,0,0,0,12-12h0V42a4.87,4.87,0,0,0-.1-1.2h0A31,31,0,0,0,67.2,10Zm-16,40a8,8,0,1,1-8,8A8,8,0,0,1,51.2,50Zm32,0a8,8,0,1,1-8,8A8,8,0,0,1,83.2,50Zm-32,4a4,4,0,1,0,4,4A4,4,0,0,0,51.2,54Zm32,0a4,4,0,1,0,4,4A4,4,0,0,0,83.2,54Zm32.1,29.1H115a4,4,0,0,0-1.8,7.5,4,4,0,0,1-2,7.5H99.9a11.55,11.55,0,0,0,5.3,6.4,12,12,0,0,0,12.3-20.6c-.1-.1-.2-.1-.3-.2A3.29,3.29,0,0,0,115.3,83.1Zm-95.9,0a4.19,4.19,0,0,0-2.2.5c-.1.1-.2.1-.3.2A12,12,0,1,0,34.5,98H23.2a4.29,4.29,0,0,1-3.5-2,4.07,4.07,0,0,1,1.5-5.5,3.94,3.94,0,0,0-1.8-7.4Z"/><rect id="cc62e62b-414b-41f3-bb2f-bdc128e6eebe" data-name="rect4334" class="581b16c8-af45-4d09-a4af-27e1aa6cda34" x="23.2" y="90" width="16" height="8"/><rect id="6c9d7001-bd93-438b-962d-40ddb862ba56" data-name="rect4345" class="581b16c8-af45-4d09-a4af-27e1aa6cda34" x="95.2" y="90" width="16" height="8"/><g class="0e515e5c-5a80-423f-bea9-8a8b153c75a4"><path class="581b16c8-af45-4d09-a4af-27e1aa6cda34" d="M174.76,86h-8.4V50.23H143.59V86h-8.4V11.55h8.4V44.28h22.77V11.55h8.4Z"/><path class="581b16c8-af45-4d09-a4af-27e1aa6cda34" d="M222,39.71,207.86,85.62,202,103.55h-7.91L200,85.62l-14.5-45.91h8.28l10,36.44L214,39.71Z"/><path class="581b16c8-af45-4d09-a4af-27e1aa6cda34" d="M265.62,76.06a8.73,8.73,0,0,1-3.57,7.11A14,14,0,0,1,253.11,86H239.88v17.55h-8V39.71h8V41l9.55-1c4-.42,7.18-.62,9.48-.62q6.7,0,6.71,5.18Zm-8-1V45.37l-17.7.38V80.43H251Q257.58,80.43,257.58,75.11Z"/><path class="581b16c8-af45-4d09-a4af-27e1aa6cda34" d="M311.35,80.62q0,5.38-6.77,5.38H285.25q-6.76,0-6.77-5.38V45.09q0-5.39,6.77-5.38h19.33q6.76,0,6.77,5.38V61.74L308.63,64H286.28V80.72h17.27V72.25h7.8Zm-7.8-21.69V45H286.28V58.93Z"/><path class="581b16c8-af45-4d09-a4af-27e1aa6cda34" d="M355.38,54.94h-7.91V45.37l-14.8.38V86h-8V39.71h8V41q4-.48,8-1a71,71,0,0,1,8-.57q6.64,0,6.64,5.18Z"/></g><polygon class="581b16c8-af45-4d09-a4af-27e1aa6cda34" points="227.8 98 227.8 90 210.6 90 208 98 227.8 98"/><polygon class="581b16c8-af45-4d09-a4af-27e1aa6cda34" points="1492.37 90 1415.05 90 243.9 90 243.9 98 1415.05 98 1492.37 98 1569.69 98 1569.69 94 1569.69 90 1492.37 90"/><g class="0e515e5c-5a80-423f-bea9-8a8b153c75a4"><path d="M399.36,80.62q0,5.38-6.83,5.38H372.36q-6.78,0-6.77-5.38V45.09q0-5.39,6.77-5.38h20.17q6.83,0,6.83,5.38Zm-8-.19V45.28h-17.7V80.43Z"/><path d="M445.09,80.62q0,5.38-6.77,5.38H419.23q-6.76,0-6.76-5.38V45.09q0-5.39,6.76-5.38h19.09q6.76,0,6.77,5.38v9.23h-7.92v-9H420.5V80.43h16.67V70.11h7.92Z"/><path d="M479.28,86H467.86q-6.76,0-6.76-5.38V45.28H454V39.71h7.07V25.3H469V39.71h10.27v5.57H469V80.43h10.27Z"/><path d="M523.32,80.62q0,5.38-6.83,5.38H496.31q-6.76,0-6.76-5.38V45.09q0-5.39,6.76-5.38h20.18q6.82,0,6.83,5.38Zm-8-.19V45.28h-17.7V80.43Z"/></g><g id="7292e641-30f8-4401-936b-a93fdbf8efc2" data-name="layer3"><path id="8f7c547d-bd22-4b1e-b973-3652f35e252d" data-name="rect4272" class="ab7bf8f3-2518-4011-acf1-27e269ac4ee0" d="M344,74.8v32H332v10.4h4v4h4v8h4v8h26.4v-4h4v-8h4V98.8h-8v-4h-8v-4h-8v-16Z"/></g><g id="bd950724-4424-4da4-9270-3727e49d3bcf" data-name="layer1"><path id="fd5d3b35-8764-4ac8-bd66-5381f1d9d05c" data-name="rect4176" class="f7febb28-c8fa-4685-8fbf-316967e8d1c6" d="M343.19,74v32h-12v12h4v4h4v8h4v8h28v-4h4v-8h4V98h-8V94h-8V90h-8V74h-12Zm4,4h4v28h4V94h4v12h4V98h4v8h4v-4h4v20h-4v8h-4v4h-20v-8h-4v-8h-4v-4h-4v-4h8v4h4Z"/></g></svg>