<?xml version="1.0" encoding="utf-8"?>
<!-- Generator: Adobe Illustrator 22.0.1, SVG Export Plug-In . SVG Version: 6.00 Build 0)  -->
<svg version="1.1"
	 id="svg2" inkscape:export-filename="D:\Documents\GitHub\Hyperocto\src\icons\64.png" inkscape:export-xdpi="36" inkscape:export-ydpi="36" inkscape:version="0.91 r13725" sodipodi:docname="icon_inkscape.svg" xmlns:cc="http://creativecommons.org/ns#" xmlns:dc="http://purl.org/dc/elements/1.1/" xmlns:inkscape="http://www.inkscape.org/namespaces/inkscape" xmlns:rdf="http://www.w3.org/1999/02/22-rdf-syntax-ns#" xmlns:sodipodi="http://sodipodi.sourceforge.net/DTD/sodipodi-0.dtd" xmlns:svg="http://www.w3.org/2000/svg"
	 xmlns="http://www.w3.org/2000/svg" xmlns:xlink="http://www.w3.org/1999/xlink" x="0px" y="0px" viewBox="0 0 128 128"
	 style="enable-background:new 0 0 128 128;" xml:space="preserve">
<style type="text/css">
	.st0{fill:#4080FF;}
	.st1{fill:url(#path4531_1_);}
</style>
<sodipodi:namedview  bordercolor="#666666" borderopacity="1.0" fit-margin-bottom="0" fit-margin-left="0" fit-margin-right="0" fit-margin-top="0" id="base" inkscape:current-layer="layer2" inkscape:cx="80.276615" inkscape:cy="71.710571" inkscape:document-units="px" inkscape:pageopacity="0.0" inkscape:pageshadow="2" inkscape:window-height="987" inkscape:window-maximized="1" inkscape:window-width="1680" inkscape:window-x="1358" inkscape:window-y="32" inkscape:zoom="4" pagecolor="#ffffff" showgrid="true" showguides="true">
	<inkscape:grid  id="grid3336" originx="-270" originy="-475.01832" type="xygrid"></inkscape:grid>
</sodipodi:namedview>
<g>
	<path id="rect4476" inkscape:connector-curvature="0" class="st0" d="M0,94v4v4h4h4h112h4h4v-4v-4h-4h-4H8H4H0z"/>
	
		<linearGradient id="path4531_1_" gradientUnits="userSpaceOnUse" x1="349.11" y1="-475.4606" x2="429.11" y2="-555.7106" gradientTransform="matrix(0.8 0 0 -0.8 -264.2 -349.5015)">
		<stop  offset="0" style="stop-color:#444444"/>
		<stop  offset="1" style="stop-color:#000000"/>
	</linearGradient>
	<path id="path4531" class="st1" d="M64,14c-17.3,0-31.5,13.8-32,31.2c0,0.3,0,0.6,0,0.8v16c0,6.6,5.4,12,12,12l0,0c2.2,0,4,1.8,4,4
		c0,2.2-1.8,4-4,4h-8c-6.6,0-12,5.4-12,12h8c0-2.2,1.8-4,4-4c2.2,0,4,1.8,4,4v4v4h0c0,3.2,1.3,6.2,3.5,8.5c0,0,0.1,0.1,0.1,0.1
		c0.1,0.1,0.1,0.1,0.2,0.1c0.2,0.2,0.5,0.4,0.7,0.6c0.1,0.1,0.2,0.2,0.3,0.2c0.2,0.2,0.4,0.3,0.6,0.5c0.2,0.1,0.4,0.2,0.5,0.3
		c0.1,0,0.1,0.1,0.2,0.1c0.2,0.1,0.4,0.2,0.5,0.3c0.2,0.1,0.3,0.2,0.5,0.2c0.2,0.1,0.4,0.2,0.6,0.2c0.2,0.1,0.3,0.1,0.5,0.2
		c0.2,0.1,0.4,0.1,0.6,0.2c0.2,0,0.4,0.1,0.5,0.1c0.2,0,0.4,0.1,0.7,0.1c0.2,0,0.3,0,0.5,0.1c0.2,0,0.5,0,0.7,0.1c0.2,0,0.3,0,0.5,0
		c0.2,0,0.5,0,0.7,0c0.2,0,0.3,0,0.5,0c0.2,0,0.5-0.1,0.7-0.1c0.2,0,0.3,0,0.5-0.1c0.2,0,0.5-0.1,0.7-0.2c0.1,0,0.3-0.1,0.4-0.1
		c0.2-0.1,0.5-0.2,0.7-0.3c0.1,0,0.3-0.1,0.4-0.1c0.2-0.1,0.5-0.2,0.7-0.3c0.1-0.1,0.3-0.1,0.4-0.2c0.2-0.1,0.5-0.3,0.7-0.4
		c0.1-0.1,0.2-0.1,0.3-0.2c0.2-0.2,0.5-0.3,0.7-0.5c0.1-0.1,0.2-0.1,0.3-0.2c0.2-0.2,0.4-0.4,0.7-0.6c0,0,0,0,0,0
		c0.1-0.1,0.1-0.1,0.2-0.2c0.1-0.1,0.2-0.3,0.3-0.4c0.5-0.6,1-1.2,1.4-1.8c0.1-0.1,0.1-0.2,0.2-0.3c1.1-1.9,0.4-4.4-1.5-5.5
		c-1.9-1.1-4.4-0.4-5.5,1.5c-0.2,0.3-0.4,0.6-0.7,0.9c-0.1,0.1-0.1,0.1-0.2,0.2c0,0-0.1,0.1-0.1,0.1c-0.1,0-0.1,0.1-0.2,0.1
		c-0.1,0-0.1,0.1-0.2,0.1c-0.1,0-0.1,0.1-0.2,0.1c-0.1,0-0.1,0.1-0.2,0.1c-0.1,0-0.1,0.1-0.2,0.1c-0.1,0-0.1,0.1-0.2,0.1
		c-0.1,0-0.1,0-0.2,0.1c-0.1,0-0.1,0-0.2,0.1c-0.1,0-0.1,0-0.2,0c-0.1,0-0.1,0-0.2,0c-0.1,0-0.1,0-0.2,0c-0.1,0-0.1,0-0.2,0
		c-0.1,0-0.2,0-0.2,0c-0.1,0-0.1,0-0.2,0c-0.1,0-0.1,0-0.2,0c-0.1,0-0.1,0-0.2,0c-0.1,0-0.1,0-0.2,0c-0.1,0-0.1,0-0.2,0
		c-0.1,0-0.2,0-0.2-0.1c-0.1,0-0.1,0-0.2-0.1c-0.1,0-0.1,0-0.2-0.1c-0.1,0-0.1,0-0.2-0.1c-0.1,0-0.2-0.1-0.3-0.1c0,0,0,0,0,0
		c-0.1,0-0.2-0.1-0.2-0.2c0,0-0.1,0-0.1-0.1c-0.1,0-0.1-0.1-0.2-0.1c0,0-0.1-0.1-0.1-0.1c0,0,0,0,0,0c-0.1-0.1-0.1-0.1-0.2-0.2
		c0-0.1-0.1-0.1-0.1-0.2c0,0-0.1-0.1-0.1-0.1c0-0.1-0.1-0.1-0.1-0.2c0-0.1-0.1-0.1-0.1-0.2c0,0-0.1-0.1-0.1-0.2
		c0-0.1-0.1-0.1-0.1-0.2c0-0.1-0.1-0.1-0.1-0.2c0-0.1-0.1-0.1-0.1-0.2c0-0.1,0-0.1-0.1-0.2c0-0.1,0-0.1-0.1-0.2c0-0.1,0-0.1,0-0.2
		c0-0.1,0-0.1,0-0.2c0-0.1,0-0.1,0-0.2c0-0.1,0-0.1,0-0.2c0-0.1,0-0.2,0-0.2h0v-4v-4c0-2.2,1.8-4,4-4h11.3h1.4H76c2.2,0,4,1.8,4,4
		v3.8c0,0.1,0,0.1,0,0.2v4h0c0,0.1,0,0.2,0,0.2c0,0.1,0,0.1,0,0.2c0,0.1,0,0.1,0,0.2c0,0.1,0,0.1,0,0.2c0,0.1,0,0.1,0,0.2
		c0,0.1,0,0.1-0.1,0.2c0,0.1,0,0.1-0.1,0.2c0,0.1-0.1,0.1-0.1,0.2c0,0.1,0,0.1-0.1,0.2c0,0.1-0.1,0.1-0.1,0.2c0,0.1-0.1,0.1-0.1,0.2
		c0,0.1-0.1,0.1-0.1,0.2c0,0.1-0.1,0.1-0.1,0.2c0,0-0.1,0.1-0.1,0.1c0,0.1-0.1,0.1-0.1,0.2c-0.1,0.1-0.1,0.1-0.2,0.2c0,0,0,0,0,0
		c0,0-0.1,0.1-0.1,0.1c-0.1,0.1-0.1,0.1-0.2,0.1c0,0-0.1,0-0.1,0.1c-0.1,0.1-0.2,0.1-0.2,0.2c0,0,0,0,0,0c-0.1,0-0.2,0.1-0.3,0.1
		c-0.1,0-0.1,0.1-0.2,0.1c-0.1,0-0.1,0.1-0.2,0.1c-0.1,0-0.1,0-0.2,0.1c-0.1,0-0.1,0-0.2,0.1c-0.1,0-0.1,0-0.2,0c-0.1,0-0.1,0-0.2,0
		c-0.1,0-0.1,0-0.2,0c-0.1,0-0.1,0-0.2,0c-0.1,0-0.1,0-0.2,0c-0.1,0-0.2,0-0.2,0c-0.1,0-0.1,0-0.2,0c-0.1,0-0.1,0-0.2,0
		c-0.1,0-0.1,0-0.2,0c-0.1,0-0.1,0-0.2,0c-0.1,0-0.1,0-0.2-0.1c-0.1,0-0.1,0-0.2-0.1c-0.1,0-0.1,0-0.2-0.1c-0.1,0-0.1-0.1-0.2-0.1
		c-0.1,0-0.1-0.1-0.2-0.1c-0.1,0-0.1-0.1-0.2-0.1c-0.1,0-0.1-0.1-0.2-0.1c-0.1,0-0.1-0.1-0.2-0.1c0,0-0.1-0.1-0.1-0.1
		c-0.1,0-0.1-0.1-0.2-0.2c-0.3-0.3-0.5-0.6-0.7-0.9c-1.1-1.9-3.6-2.6-5.5-1.5c-1.9,1.1-2.6,3.6-1.5,5.5c0.1,0.1,0.1,0.2,0.2,0.3
		c0.4,0.6,0.9,1.2,1.4,1.8c0.1,0.1,0.2,0.3,0.3,0.4c0.1,0.1,0.1,0.1,0.2,0.2c0,0,0,0,0,0c0.2,0.2,0.4,0.4,0.7,0.6
		c0.1,0.1,0.2,0.2,0.3,0.2c0.2,0.2,0.4,0.3,0.7,0.5c0.1,0.1,0.2,0.1,0.3,0.2c0.2,0.1,0.5,0.3,0.7,0.4c0.1,0.1,0.2,0.1,0.4,0.2
		c0.2,0.1,0.5,0.2,0.7,0.3c0.1,0.1,0.3,0.1,0.4,0.1c0.2,0.1,0.5,0.2,0.7,0.3c0.1,0,0.3,0.1,0.4,0.1c0.2,0.1,0.5,0.1,0.7,0.2
		c0.2,0,0.3,0.1,0.5,0.1c0.2,0,0.5,0.1,0.7,0.1c0.2,0,0.3,0,0.5,0c0.2,0,0.5,0,0.7,0c0.2,0,0.3,0,0.5,0c0.2,0,0.5,0,0.7-0.1
		c0.2,0,0.3,0,0.5-0.1c0.2,0,0.4-0.1,0.7-0.1c0.2,0,0.4-0.1,0.5-0.1c0.2-0.1,0.4-0.1,0.6-0.2c0.2-0.1,0.4-0.1,0.5-0.2
		c0.2-0.1,0.4-0.2,0.6-0.2c0.2-0.1,0.3-0.2,0.5-0.2c0.2-0.1,0.4-0.2,0.5-0.3c0.1,0,0.1-0.1,0.2-0.1c0.2-0.1,0.4-0.2,0.5-0.3
		c0.2-0.1,0.4-0.3,0.6-0.5c0.1-0.1,0.2-0.2,0.3-0.2c0.2-0.2,0.5-0.4,0.7-0.6c0.1,0,0.1-0.1,0.2-0.1c0,0,0.1-0.1,0.1-0.1
		c2.2-2.3,3.5-5.3,3.5-8.5h0v-4v-4c0-2.2,1.8-4,4-4c2.2,0,4,1.8,4,4h8c0-6.6-5.4-12-12-12c0,0,0,0,0,0h0h-8c-2.2,0-4-1.8-4-4
		c0-2.2,1.8-4,4-4c6.6,0,12-5.4,12-12l0,0V46c0-0.4,0-0.8-0.1-1.2c0,0,0,0,0,0C95.3,27.6,81.2,14,64,14z M48,54c4.4,0,8,3.6,8,8
		c0,4.4-3.6,8-8,8s-8-3.6-8-8C40,57.6,43.6,54,48,54z M80,54c4.4,0,8,3.6,8,8c0,4.4-3.6,8-8,8c-4.4,0-8-3.6-8-8
		C72,57.6,75.6,54,80,54z M48,58c-2.2,0-4,1.8-4,4c0,2.2,1.8,4,4,4c2.2,0,4-1.8,4-4C52,59.8,50.2,58,48,58z M80,58c-2.2,0-4,1.8-4,4
		c0,2.2,1.8,4,4,4s4-1.8,4-4C84,59.8,82.2,58,80,58z M112.1,87.1c-0.1,0-0.2,0-0.3,0c-1.4,0.1-2.6,0.8-3.3,2
		c-1.1,1.9-0.4,4.4,1.5,5.5c1.9,1.1,2.6,3.6,1.5,5.5c-0.7,1.2-2,2-3.5,2v0H96.7c0.9,2.7,2.8,5,5.3,6.4c5.7,3.3,13.1,1.3,16.4-4.4
		c3.2-5.6,1.4-12.8-4.1-16.2c-0.1-0.1-0.2-0.1-0.3-0.2C113.4,87.3,112.8,87.1,112.1,87.1z M16.2,87.1c-0.8,0-1.5,0.1-2.2,0.5
		c-0.1,0.1-0.2,0.1-0.3,0.2C8.2,91.2,6.4,98.4,9.6,104c3.3,5.7,10.7,7.7,16.4,4.4c2.5-1.4,4.3-3.7,5.3-6.4H20v0
		c-1.4,0-2.7-0.8-3.5-2c-1.1-1.9-0.4-4.4,1.5-5.5s2.6-3.6,1.5-5.5C18.8,87.9,17.5,87.1,16.2,87.1z"/>
	<rect id="rect4334" x="20" y="94" class="st0" width="16" height="8"/>
	<rect id="rect4345" x="92" y="94" class="st0" width="16" height="8"/>
</g>
</svg>
