<?xml version="1.0" encoding="utf-8"?>
<!-- Generator: Adobe Illustrator 22.0.1, SVG Export Plug-In . SVG Version: 6.00 Build 0)  -->
<svg version="1.1"
	 id="svg2" inkscape:export-filename="D:\Documents\GitHub\Hyperocto\image\logo\banner_large.png" inkscape:export-xdpi="115.6" inkscape:export-ydpi="115.6" inkscape:version="0.91 r13725" sodipodi:docname="logo_inkscape.svg" xmlns:cc="http://creativecommons.org/ns#" xmlns:dc="http://purl.org/dc/elements/1.1/" xmlns:inkscape="http://www.inkscape.org/namespaces/inkscape" xmlns:rdf="http://www.w3.org/1999/02/22-rdf-syntax-ns#" xmlns:sodipodi="http://sodipodi.sourceforge.net/DTD/sodipodi-0.dtd" xmlns:svg="http://www.w3.org/2000/svg"
	 xmlns="http://www.w3.org/2000/svg" xmlns:xlink="http://www.w3.org/1999/xlink" x="0px" y="0px" viewBox="0 0 523.2 138"
	 style="enable-background:new 0 0 523.2 138;" xml:space="preserve">
<style type="text/css">
	.st0{fill:#4080FF;}
	.st1{fill:url(#path4531_1_);}
	.st2{font-family:'AgencyFB-Reg';}
	.st3{font-size:97.4231px;}
	.st4{fill:#FFFFFF;}
	.st5{fill:#808080;}
</style>
<polygon class="st0" points="194.4,90 35.8,90 19.4,90 3.2,90 3.2,94 3.2,98 19.5,98 35.8,98 191.7,98 "/>
<sodipodi:namedview  bordercolor="#666666" borderopacity="1.0" fit-margin-bottom="0" fit-margin-left="0" fit-margin-right="0" fit-margin-top="0" id="base" inkscape:current-layer="layer2" inkscape:cx="333.07475" inkscape:cy="-11.211867" inkscape:document-units="px" inkscape:pageopacity="0.0" inkscape:pageshadow="2" inkscape:window-height="987" inkscape:window-maximized="1" inkscape:window-width="1680" inkscape:window-x="1358" inkscape:window-y="32" inkscape:zoom="1.4142136" pagecolor="#ffffff" showborder="false" showgrid="true" showguides="true">
	<inkscape:grid  id="grid3336" originx="-266.00825" originy="-440.00087" type="xygrid"></inkscape:grid>
</sodipodi:namedview>
<linearGradient id="path4531_1_" gradientUnits="userSpaceOnUse" x1="257.5938" y1="1230.7024" x2="337.5938" y2="1310.9524" gradientTransform="matrix(0.8 0 0 0.8 -187.8066 -957.6905)">
	<stop  offset="0" style="stop-color:#444444"/>
	<stop  offset="1" style="stop-color:#000000"/>
</linearGradient>
<path id="path4531" inkscape:connector-curvature="0" class="st1" d="M67.2,10c-17.3,0-31.5,13.8-32,31.2c0,0.3,0,0.6,0,0.8v16
	c0,6.6,5.4,12,12,12l0,0c2.2,0,4,1.8,4,4s-1.8,4-4,4h-8c-6.6,0-12,5.4-12,12h8c0-2.2,1.8-4,4-4s4,1.8,4,4v4v4l0,0
	c0,3.2,1.3,6.2,3.5,8.5l0.1,0.1c0.1,0.1,0.1,0.1,0.2,0.1c0.2,0.2,0.5,0.4,0.7,0.6c0.1,0.1,0.2,0.2,0.3,0.2c0.2,0.2,0.4,0.3,0.6,0.5
	c0.2,0.1,0.4,0.2,0.5,0.3c0.1,0,0.1,0.1,0.2,0.1c0.2,0.1,0.4,0.2,0.5,0.3c0.2,0.1,0.3,0.2,0.5,0.2c0.2,0.1,0.4,0.2,0.6,0.2
	c0.2,0.1,0.3,0.1,0.5,0.2s0.4,0.1,0.6,0.2c0.2,0,0.4,0.1,0.5,0.1c0.2,0,0.4,0.1,0.7,0.1c0.2,0,0.3,0,0.5,0.1c0.2,0,0.5,0,0.7,0.1
	c0.2,0,0.3,0,0.5,0s0.5,0,0.7,0s0.3,0,0.5,0s0.5-0.1,0.7-0.1s0.3,0,0.5-0.1c0.2,0,0.5-0.1,0.7-0.2c0.1,0,0.3-0.1,0.4-0.1
	c0.2-0.1,0.5-0.2,0.7-0.3c0.1,0,0.3-0.1,0.4-0.1c0.2-0.1,0.5-0.2,0.7-0.3c0.1-0.1,0.3-0.1,0.4-0.2c0.2-0.1,0.5-0.3,0.7-0.4
	c0.1-0.1,0.2-0.1,0.3-0.2c0.2-0.2,0.5-0.3,0.7-0.5c0.1-0.1,0.2-0.1,0.3-0.2c0.2-0.2,0.4-0.4,0.7-0.6l0,0c0.1-0.1,0.1-0.1,0.2-0.2
	c0.1-0.1,0.2-0.3,0.3-0.4c0.5-0.6,1-1.2,1.4-1.8c0.1-0.1,0.1-0.2,0.2-0.3c1.1-1.9,0.4-4.4-1.5-5.5s-4.4-0.4-5.5,1.5
	c-0.2,0.3-0.4,0.6-0.7,0.9c-0.1,0.1-0.1,0.1-0.2,0.2l-0.1,0.1c-0.1,0-0.1,0.1-0.2,0.1c-0.1,0-0.1,0.1-0.2,0.1
	c-0.1,0-0.1,0.1-0.2,0.1c-0.1,0-0.1,0.1-0.2,0.1c-0.1,0-0.1,0.1-0.2,0.1c-0.1,0-0.1,0.1-0.2,0.1c-0.1,0-0.1,0-0.2,0.1
	c-0.1,0-0.1,0-0.2,0.1c-0.1,0-0.1,0-0.2,0c-0.1,0-0.1,0-0.2,0c-0.1,0-0.1,0-0.2,0c-0.1,0-0.1,0-0.2,0c-0.1,0-0.2,0-0.2,0
	c-0.1,0-0.1,0-0.2,0c-0.1,0-0.1,0-0.2,0c-0.1,0-0.1,0-0.2,0c-0.1,0-0.1,0-0.2,0c-0.1,0-0.1,0-0.2,0c-0.1,0-0.2,0-0.2-0.1
	c-0.1,0-0.1,0-0.2-0.1c-0.1,0-0.1,0-0.2-0.1c-0.1,0-0.1,0-0.2-0.1c-0.1,0-0.2-0.1-0.3-0.1l0,0c-0.1,0-0.2-0.1-0.2-0.2
	c0,0-0.1,0-0.1-0.1c-0.1,0-0.1-0.1-0.2-0.1l-0.1-0.1l0,0c-0.1-0.1-0.1-0.1-0.2-0.2c0-0.1-0.1-0.1-0.1-0.2l-0.1-0.1
	c0-0.1-0.1-0.1-0.1-0.2s-0.1-0.1-0.1-0.2l-0.1-0.1c0-0.1-0.1-0.1-0.1-0.2s-0.1-0.1-0.1-0.2s-0.1-0.1-0.1-0.2s0-0.1-0.1-0.2
	c0-0.1,0-0.1-0.1-0.2c0-0.1,0-0.1,0-0.2s0-0.1,0-0.2s0-0.1,0-0.2s0-0.1,0-0.2s0-0.2,0-0.2l0,0v-4v-4c0-2.2,1.8-4,4-4h11.3h1.4h11.3
	c2.2,0,4,1.8,4,4v3.8c0,0.1,0,0.1,0,0.2v4l0,0c0,0.1,0,0.2,0,0.2c0,0.1,0,0.1,0,0.2s0,0.1,0,0.2s0,0.1,0,0.2s0,0.1,0,0.2
	s0,0.1-0.1,0.2c0,0.1,0,0.1-0.1,0.2c0,0.1-0.1,0.1-0.1,0.2s0,0.1-0.1,0.2c0,0.1-0.1,0.1-0.1,0.2s-0.1,0.1-0.1,0.2s-0.1,0.1-0.1,0.2
	s-0.1,0.1-0.1,0.2l-0.1,0.1c0,0.1-0.1,0.1-0.1,0.2c-0.1,0.1-0.1,0.1-0.2,0.2l0,0l-0.1,0.1c-0.1,0.1-0.1,0.1-0.2,0.1
	c0,0-0.1,0-0.1,0.1c-0.1,0.1-0.2,0.1-0.2,0.2l0,0c-0.1,0-0.2,0.1-0.3,0.1c-0.1,0-0.1,0.1-0.2,0.1s-0.1,0.1-0.2,0.1s-0.1,0-0.2,0.1
	c-0.1,0-0.1,0-0.2,0.1c-0.1,0-0.1,0-0.2,0s-0.1,0-0.2,0s-0.1,0-0.2,0s-0.1,0-0.2,0s-0.1,0-0.2,0s-0.2,0-0.2,0c-0.1,0-0.1,0-0.2,0
	s-0.1,0-0.2,0s-0.1,0-0.2,0s-0.1,0-0.2,0s-0.1,0-0.2-0.1c-0.1,0-0.1,0-0.2-0.1c-0.1,0-0.1,0-0.2-0.1c-0.1,0-0.1-0.1-0.2-0.1
	s-0.1-0.1-0.2-0.1s-0.1-0.1-0.2-0.1s-0.1-0.1-0.2-0.1s-0.1-0.1-0.2-0.1l-0.1-0.1c-0.1,0-0.1-0.1-0.2-0.2c-0.3-0.3-0.5-0.6-0.7-0.9
	c-1.1-1.9-3.6-2.6-5.5-1.5s-2.6,3.6-1.5,5.5c0.1,0.1,0.1,0.2,0.2,0.3c0.4,0.6,0.9,1.2,1.4,1.8c0.1,0.1,0.2,0.3,0.3,0.4
	c0.1,0.1,0.1,0.1,0.2,0.2l0,0c0.2,0.2,0.4,0.4,0.7,0.6c0.1,0.1,0.2,0.2,0.3,0.2c0.2,0.2,0.4,0.3,0.7,0.5c0.1,0.1,0.2,0.1,0.3,0.2
	c0.2,0.1,0.5,0.3,0.7,0.4c0.1,0.1,0.2,0.1,0.4,0.2c0.2,0.1,0.5,0.2,0.7,0.3c0.1,0.1,0.3,0.1,0.4,0.1c0.2,0.1,0.5,0.2,0.7,0.3
	c0.1,0,0.3,0.1,0.4,0.1c0.2,0.1,0.5,0.1,0.7,0.2c0.2,0,0.3,0.1,0.5,0.1s0.5,0.1,0.7,0.1s0.3,0,0.5,0s0.5,0,0.7,0s0.3,0,0.5,0
	s0.5,0,0.7-0.1c0.2,0,0.3,0,0.5-0.1c0.2,0,0.4-0.1,0.7-0.1c0.2,0,0.4-0.1,0.5-0.1c0.2-0.1,0.4-0.1,0.6-0.2s0.4-0.1,0.5-0.2
	c0.2-0.1,0.4-0.2,0.6-0.2c0.2-0.1,0.3-0.2,0.5-0.2c0.2-0.1,0.4-0.2,0.5-0.3c0.1,0,0.1-0.1,0.2-0.1c0.2-0.1,0.4-0.2,0.5-0.3
	c0.2-0.1,0.4-0.3,0.6-0.5c0.1-0.1,0.2-0.2,0.3-0.2c0.2-0.2,0.5-0.4,0.7-0.6c0.1,0,0.1-0.1,0.2-0.1l0.1-0.1c2.2-2.3,3.5-5.3,3.5-8.5
	l0,0v-4v-4c0-2.2,1.8-4,4-4s4,1.8,4,4h8c0-6.6-5.4-12-12-12l0,0l0,0h-8c-2.2,0-4-1.8-4-4s1.8-4,4-4c6.6,0,12-5.4,12-12l0,0V42
	c0-0.4,0-0.8-0.1-1.2l0,0C98.5,23.6,84.4,10,67.2,10z M51.2,50c4.4,0,8,3.6,8,8s-3.6,8-8,8s-8-3.6-8-8S46.8,50,51.2,50z M83.2,50
	c4.4,0,8,3.6,8,8s-3.6,8-8,8s-8-3.6-8-8S78.8,50,83.2,50z M51.2,54c-2.2,0-4,1.8-4,4s1.8,4,4,4s4-1.8,4-4S53.4,54,51.2,54z M83.2,54
	c-2.2,0-4,1.8-4,4s1.8,4,4,4s4-1.8,4-4S85.4,54,83.2,54z M115.3,83.1c-0.1,0-0.2,0-0.3,0c-1.4,0.1-2.6,0.8-3.3,2
	c-1.1,1.9-0.4,4.4,1.5,5.5s2.6,3.6,1.5,5.5c-0.7,1.2-2,2-3.5,2l0,0H99.9c0.9,2.7,2.8,5,5.3,6.4c5.7,3.3,13.1,1.3,16.4-4.4
	c3.2-5.6,1.4-12.8-4.1-16.2c-0.1-0.1-0.2-0.1-0.3-0.2C116.6,83.3,116,83.1,115.3,83.1z M19.4,83.1c-0.8,0-1.5,0.1-2.2,0.5
	c-0.1,0.1-0.2,0.1-0.3,0.2c-5.5,3.4-7.3,10.6-4.1,16.2c3.3,5.7,10.7,7.7,16.4,4.4c2.5-1.4,4.3-3.7,5.3-6.4H23.2l0,0
	c-1.4,0-2.7-0.8-3.5-2c-1.1-1.9-0.4-4.4,1.5-5.5s2.6-3.6,1.5-5.5C22,83.9,20.7,83.1,19.4,83.1z"/>
<rect id="rect4334" x="23.2" y="90" class="st0" width="16" height="8"/>
<rect id="rect4345" x="95.2" y="90" class="st0" width="16" height="8"/>
<text transform="matrix(1.2699 0 0 1 127.6416 85.998)" class="st0 st2 st3">Hyper</text>
<polygon class="st0" points="227.8,98 227.8,90 210.6,90 208,98 "/>
<polygon class="st0" points="507.1,90 490.8,90 243.9,90 243.9,98 490.8,98 507.1,98 523.4,98 523.4,94 523.4,90 "/>
<text transform="matrix(1.2699 0 0 1 359.0049 85.998)" class="st2 st3">octo</text>
<g id="layer3" transform="translate(3.9917416,12.49826)" inkscape:groupmode="layer" inkscape:label="Layer 4">
	<path id="rect4272" inkscape:connector-curvature="0" class="st4" d="M340,62.3v32h-12v10.4h4v4h4v4v4h4v4v4h26.4v-4h4v-8h4V94.3
		v-8h-8v-4h-8v-4h-8v-16C350.4,62.3,340,62.3,340,62.3z"/>
</g>
<g id="layer1" transform="translate(3.9917416,12.49826)" inkscape:groupmode="layer" inkscape:label="Layer 3">
	<path id="rect4176" inkscape:connector-curvature="0" class="st5" d="M339.2,61.5v4v28h-12v4v4v4h4v4h4v8h4v8h4h24v-4h4v-4v-4h4v-4
		v-24h-8v-4h-8v-4h-8v-12v-4h-4h-4H339.2z M343.2,65.5h4v12v4v12h4v-12h4v4v8h4v-8h4v4v4h4v-4h4v20h-4v8h-4v4h-20v-8h-4v-8h-4v-4h-4
		v-4h8v4h4V65.5z"/>
</g>
</svg>
