<?xml version="1.0" encoding="UTF-8" standalone="no"?>
<!-- Created with Inkscape (http://www.inkscape.org/) -->

<svg
   xmlns:dc="http://purl.org/dc/elements/1.1/"
   xmlns:cc="http://creativecommons.org/ns#"
   xmlns:rdf="http://www.w3.org/1999/02/22-rdf-syntax-ns#"
   xmlns:svg="http://www.w3.org/2000/svg"
   xmlns="http://www.w3.org/2000/svg"
   xmlns:xlink="http://www.w3.org/1999/xlink"
   xmlns:sodipodi="http://sodipodi.sourceforge.net/DTD/sodipodi-0.dtd"
   xmlns:inkscape="http://www.inkscape.org/namespaces/inkscape"
   width="45.155556mm"
   height="35.272854mm"
   viewBox="0 0 160 124.98255"
   id="svg2"
   version="1.1"
   inkscape:version="0.91 r13725"
   sodipodi:docname="banner_inkscape.svg"
   inkscape:export-filename="C:\Users\Garbagecan\Desktop\banner.png"
   inkscape:export-xdpi="55.111351"
   inkscape:export-ydpi="55.111351">
  <defs
     id="defs4">
    <linearGradient
       inkscape:collect="always"
       id="g">
      <stop
         style="stop-color:#444444;stop-opacity:1"
         offset="0"
         id="stop4146" />
      <stop
         style="stop-color:#000000;stop-opacity:1"
         offset="1"
         id="stop4148" />
    </linearGradient>
    <filter
       style="color-interpolation-filters:sRGB;"
       inkscape:label="Drop Shadow"
       id="filter4322">
      <feFlood
         flood-opacity="0.498039"
         flood-color="rgb(0,0,0)"
         result="flood"
         id="feFlood4324" />
      <feComposite
         in="flood"
         in2="SourceGraphic"
         operator="in"
         result="composite1"
         id="feComposite4326" />
      <feGaussianBlur
         in="composite1"
         stdDeviation="1"
         result="blur"
         id="feGaussianBlur4328" />
      <feOffset
         dx="1"
         dy="1"
         result="offset"
         id="feOffset4330" />
      <feComposite
         in="SourceGraphic"
         in2="offset"
         operator="over"
         result="composite2"
         id="feComposite4332" />
    </filter>
    <linearGradient
       inkscape:collect="always"
       xlink:href="#g"
       id="linearGradient4150"
       x1="310"
       y1="452.36221"
       x2="390"
       y2="532.61218"
       gradientUnits="userSpaceOnUse" />
  </defs>
  <sodipodi:namedview
     id="base"
     pagecolor="#ffffff"
     bordercolor="#666666"
     borderopacity="1.0"
     inkscape:pageopacity="0.0"
     inkscape:pageshadow="2"
     inkscape:zoom="1"
     inkscape:cx="284.29415"
     inkscape:cy="30.242192"
     inkscape:document-units="px"
     inkscape:current-layer="layer2"
     showgrid="true"
     inkscape:window-width="1366"
     inkscape:window-height="745"
     inkscape:window-x="-8"
     inkscape:window-y="274"
     inkscape:window-maximized="1"
     fit-margin-top="0"
     fit-margin-left="0"
     fit-margin-right="0"
     fit-margin-bottom="0"
     showguides="true">
    <inkscape:grid
       type="xygrid"
       id="grid3336"
       originx="-270"
       originy="-475.01832" />
  </sodipodi:namedview>
  <metadata
     id="metadata7">
    <rdf:RDF>
      <cc:Work
         rdf:about="">
        <dc:format>image/svg+xml</dc:format>
        <dc:type
           rdf:resource="http://purl.org/dc/dcmitype/StillImage" />
        <dc:title></dc:title>
      </cc:Work>
    </rdf:RDF>
  </metadata>
  <g
     inkscape:groupmode="layer"
     id="layer2"
     inkscape:label="Layer 2"
     style="display:inline"
     transform="translate(-270,-452.36133)">
    <path
       inkscape:connector-curvature="0"
       style="fill:#0000ee;fill-opacity:1;stroke:none"
       d="m 270,552.36133 0,5 0,5 20.31251,0 20.31251,0 568.75023,0 20.31248,0 20.31253,0 0,-5 0,-5 -20.31253,0 -20.31248,0 -568.75023,0 -20.31251,0 -20.31251,0 z"
       id="rect4476" />
    <path
       id="path4531"
       style="fill:url(#linearGradient4150);fill-opacity:1;stroke:none;filter:url(#filter4322)"
       d="m 350,452.36133 a 40,40 0 0 0 -39.96289,38.9375 15,15 0 0 0 -0.0371,1.0625 l 0,20 a 15,15 0 0 0 15,15 5,5 0 0 1 5,5 5,5 0 0 1 -5,5 l -10,0 a 15,15 0 0 0 -15,15 l 10,0 a 5,5 0 0 1 5,-5 5,5 0 0 1 5,5 l 0,5 0,5 0.01,0 a 15,15 0 0 0 4.38281,10.60742 15,15 0 0 0 0.14258,0.12891 15,15 0 0 0 0.20703,0.18555 15,15 0 0 0 0.89649,0.78906 15,15 0 0 0 0.39453,0.29101 15,15 0 0 0 0.78906,0.56446 15,15 0 0 0 0.67773,0.42382 15,15 0 0 0 0.26758,0.13672 15,15 0 0 0 0.66602,0.33985 15,15 0 0 0 0.64648,0.30078 15,15 0 0 0 0.75391,0.29492 15,15 0 0 0 0.6582,0.22852 15,15 0 0 0 0.75977,0.21289 15,15 0 0 0 0.68164,0.16406 15,15 0 0 0 0.83203,0.14453 15,15 0 0 0 0.62305,0.084 15,15 0 0 0 0.88281,0.0645 15,15 0 0 0 0.60547,0.0215 15,15 0 0 0 0.91211,-0.0254 15,15 0 0 0 0.57617,-0.0371 15,15 0 0 0 0.9082,-0.11523 15,15 0 0 0 0.58008,-0.0977 15,15 0 0 0 0.89844,-0.20703 15,15 0 0 0 0.54297,-0.14844 15,15 0 0 0 0.91796,-0.3125 15,15 0 0 0 0.47266,-0.17968 15,15 0 0 0 0.89844,-0.40821 15,15 0 0 0 0.4707,-0.23633 15,15 0 0 0 0.86328,-0.50586 15,15 0 0 0 0.39649,-0.25 15,15 0 0 0 0.84375,-0.61132 15,15 0 0 0 0.35742,-0.2793 15,15 0 0 0 0.82812,-0.71484 15,15 0 0 0 0.006,-0.006 5,5 0 0 0 0.25782,-0.24219 5,5 0 0 0 0.42578,-0.49219 15,15 0 0 0 1.7207,-2.24609 5,5 0 0 0 0.23633,-0.36719 5,5 0 0 0 -1.83008,-6.83008 5,5 0 0 0 -6.83008,1.83008 5,5 0 0 1 -0.85351,1.08984 5,5 0 0 1 -0.21094,0.18946 5,5 0 0 1 -0.17188,0.14453 5,5 0 0 1 -0.20898,0.15234 5,5 0 0 1 -0.20508,0.14063 5,5 0 0 1 -0.2207,0.1289 5,5 0 0 1 -0.20703,0.11328 5,5 0 0 1 -0.23828,0.11133 5,5 0 0 1 -0.22071,0.0918 5,5 0 0 1 -0.2539,0.0879 5,5 0 0 1 -0.2168,0.0664 5,5 0 0 1 -0.24805,0.0605 5,5 0 0 1 -0.25195,0.0508 5,5 0 0 1 -0.25586,0.0332 5,5 0 0 1 -0.21875,0.0215 5,5 0 0 1 -0.29101,0.0117 5,5 0 0 1 -0.21875,-0.002 5,5 0 0 1 -0.25586,-0.0156 5,5 0 0 1 -0.24805,-0.0254 5,5 0 0 1 -0.26172,-0.043 5,5 0 0 1 -0.21289,-0.0449 5,5 0 0 1 -0.28125,-0.0762 5,5 0 0 1 -0.20703,-0.0644 5,5 0 0 1 -0.24805,-0.0937 5,5 0 0 1 -0.2168,-0.0918 5,5 0 0 1 -0.34179,-0.17383 5,5 0 0 1 -0.0332,-0.0156 5,5 0 0 1 -0.30078,-0.19141 5,5 0 0 1 -0.12305,-0.0801 5,5 0 0 1 -0.23047,-0.18164 5,5 0 0 1 -0.17578,-0.13867 5,5 0 0 1 -0.0469,-0.0449 5,5 0 0 1 -0.25586,-0.24805 5,5 0 0 1 -0.17187,-0.19336 5,5 0 0 1 -0.14649,-0.17383 5,5 0 0 1 -0.15625,-0.21093 5,5 0 0 1 -0.14453,-0.2168 5,5 0 0 1 -0.11133,-0.1875 5,5 0 0 1 -0.13281,-0.24219 5,5 0 0 1 -0.0957,-0.20703 5,5 0 0 1 -0.10352,-0.25 5,5 0 0 1 -0.0801,-0.22852 5,5 0 0 1 -0.0723,-0.23828 5,5 0 0 1 -0.0586,-0.23828 5,5 0 0 1 -0.0508,-0.25586 5,5 0 0 1 -0.0312,-0.24023 5,5 0 0 1 -0.0254,-0.27344 5,5 0 0 1 -0.0137,-0.30656 l -0.004,0 0,-5 0,-5 a 5,5 0 0 1 5,-5 l 14.12305,0 1.75195,0 14.125,0 a 5,5 0 0 1 5,5 l 0,4.76367 a 5,5 0 0 1 0.008,0.23633 l 0,5 -0.004,0 a 5,5 0 0 1 -0.0137,0.30664 5,5 0 0 1 -0.0254,0.27344 5,5 0 0 1 -0.0312,0.24023 5,5 0 0 1 -0.0508,0.25586 5,5 0 0 1 -0.0586,0.23828 5,5 0 0 1 -0.0723,0.23828 5,5 0 0 1 -0.0801,0.22852 5,5 0 0 1 -0.10352,0.25 5,5 0 0 1 -0.0957,0.20703 5,5 0 0 1 -0.13281,0.24219 5,5 0 0 1 -0.11133,0.1875 5,5 0 0 1 -0.14453,0.2168 5,5 0 0 1 -0.15625,0.21093 5,5 0 0 1 -0.14648,0.17383 5,5 0 0 1 -0.17188,0.19336 5,5 0 0 1 -0.25586,0.24805 5,5 0 0 1 -0.0469,0.0449 5,5 0 0 1 -0.17578,0.13867 5,5 0 0 1 -0.23047,0.18164 5,5 0 0 1 -0.12304,0.0801 5,5 0 0 1 -0.30079,0.19141 5,5 0 0 1 -0.0332,0.0156 5,5 0 0 1 -0.3418,0.17383 5,5 0 0 1 -0.2168,0.0918 5,5 0 0 1 -0.24804,0.0937 5,5 0 0 1 -0.20704,0.0644 5,5 0 0 1 -0.28125,0.0762 5,5 0 0 1 -0.21289,0.0449 5,5 0 0 1 -0.26172,0.043 5,5 0 0 1 -0.24804,0.0254 5,5 0 0 1 -0.25586,0.0156 5,5 0 0 1 -0.21875,0.002 5,5 0 0 1 -0.29102,-0.0117 5,5 0 0 1 -0.21875,-0.0215 5,5 0 0 1 -0.25586,-0.0332 5,5 0 0 1 -0.25195,-0.0508 5,5 0 0 1 -0.24805,-0.0605 5,5 0 0 1 -0.21679,-0.0664 5,5 0 0 1 -0.25391,-0.0879 5,5 0 0 1 -0.2207,-0.0918 5,5 0 0 1 -0.23828,-0.11133 5,5 0 0 1 -0.20704,-0.11328 5,5 0 0 1 -0.2207,-0.1289 5,5 0 0 1 -0.20508,-0.14063 5,5 0 0 1 -0.20898,-0.15234 5,5 0 0 1 -0.17188,-0.14453 5,5 0 0 1 -0.21093,-0.18946 5,5 0 0 1 -0.85352,-1.08984 5,5 0 0 0 -6.83008,-1.83008 5,5 0 0 0 -1.83008,6.83008 5,5 0 0 0 0.23633,0.36719 15,15 0 0 0 1.72071,2.24609 5,5 0 0 0 0.42578,0.49219 5,5 0 0 0 0.25781,0.24219 15,15 0 0 0 0.006,0.006 15,15 0 0 0 0.82812,0.71484 15,15 0 0 0 0.35743,0.2793 15,15 0 0 0 0.84375,0.61132 15,15 0 0 0 0.39648,0.25 15,15 0 0 0 0.86328,0.50586 15,15 0 0 0 0.4707,0.23633 15,15 0 0 0 0.89844,0.40821 15,15 0 0 0 0.47266,0.17968 15,15 0 0 0 0.91797,0.3125 15,15 0 0 0 0.54297,0.14844 15,15 0 0 0 0.89843,0.20703 15,15 0 0 0 0.58008,0.0977 15,15 0 0 0 0.9082,0.11523 15,15 0 0 0 0.57618,0.0371 15,15 0 0 0 0.91211,0.0254 15,15 0 0 0 0.60546,-0.0215 15,15 0 0 0 0.88282,-0.0645 15,15 0 0 0 0.62304,-0.084 15,15 0 0 0 0.83204,-0.14453 15,15 0 0 0 0.68164,-0.16406 15,15 0 0 0 0.75976,-0.21289 15,15 0 0 0 0.65821,-0.22852 15,15 0 0 0 0.7539,-0.29492 15,15 0 0 0 0.64649,-0.30078 15,15 0 0 0 0.66601,-0.33985 15,15 0 0 0 0.26758,-0.13672 15,15 0 0 0 0.67774,-0.42382 15,15 0 0 0 0.78906,-0.56446 15,15 0 0 0 0.39453,-0.29101 15,15 0 0 0 0.89648,-0.78906 15,15 0 0 0 0.20704,-0.18555 15,15 0 0 0 0.14257,-0.12891 15,15 0 0 0 4.38268,-10.6075 l 0.01,0 0,-5 0,-5 a 5,5 0 0 1 5,-5 5,5 0 0 1 5,5 l 10,0 a 15,15 0 0 0 -15,-15 15,15 0 0 0 -0.008,0 l -0.0293,0 -9.9707,0 a 5,5 0 0 1 -5,-5 5,5 0 0 1 5,-5 15,15 0 0 0 15,-15 l 0,-20 a 40,40 0 0 0 -0.0742,-1.49805 15,15 0 0 0 0,-0.006 A 40,40 0 0 0 350,452.36133 Z m -20,50 a 10,10 0 0 1 10,10 10,10 0 0 1 -10,10 10,10 0 0 1 -10,-10 10,10 0 0 1 10,-10 z m 40,0 a 10,10 0 0 1 10,10 10,10 0 0 1 -10,10 10,10 0 0 1 -10,-10 10,10 0 0 1 10,-10 z m -40,5 a 5,5 0 0 0 -5,5 5,5 0 0 0 5,5 5,5 0 0 0 5,-5 5,5 0 0 0 -5,-5 z m 40,0 a 5,5 0 0 0 -5,5 5,5 0 0 0 5,5 5,5 0 0 0 5,-5 5,5 0 0 0 -5,-5 z m 40.125,36.3418 a 5,5 0 0 0 -0.35352,0.004 5,5 0 0 0 -4.09375,2.49414 5,5 0 0 0 1.83008,6.83007 5,5 0 0 1 1.83008,6.83009 A 5,5 0 0 1 405,562.35547 l 0,0.006 -14.09961,0 a 15,15 0 0 0 6.60742,7.99023 15,15 0 0 0 20.49024,-5.49037 15,15 0 0 0 -5.12305,-20.25391 5,5 0 0 0 -0.36719,-0.23632 5,5 0 0 0 -2.38281,-0.66797 z m -119.88867,0.004 a 5,5 0 0 0 -2.73633,0.66407 5,5 0 0 0 -0.36719,0.23632 15,15 0 0 0 -5.12304,20.25391 15,15 0 0 0 20.49023,5.49023 15,15 0 0 0 6.62305,-7.99023 l -14.12305,0 0,-0.004 a 5,5 0 0 1 -4.33008,-2.496 5,5 0 0 1 1.83008,-6.83008 5,5 0 0 0 1.83008,-6.83008 5,5 0 0 0 -4.09375,-2.49414 z" />
    <rect
       style="opacity:1;fill:#0000ee;fill-opacity:1;stroke:none;stroke-width:0.30000001;stroke-miterlimit:4;stroke-dasharray:none;stroke-dashoffset:0"
       id="rect4334"
       width="20"
       height="10"
       x="295"
       y="552.36218" />
    <rect
       style="opacity:1;fill:#0000ee;fill-opacity:1;stroke:none;stroke-width:0.30000001;stroke-miterlimit:4;stroke-dasharray:none;stroke-dashoffset:0"
       id="rect4345"
       width="20"
       height="10"
       x="385"
       y="552.36218" />
    <text
       xml:space="preserve"
       style="font-style:normal;font-variant:normal;font-weight:normal;font-stretch:condensed;font-size:137.23109436px;line-height:125%;font-family:'Agency FB';-inkscape-font-specification:'Agency FB Condensed';letter-spacing:0px;word-spacing:0px;fill:#000000;fill-opacity:1;stroke:none;stroke-width:1px;stroke-linecap:butt;stroke-linejoin:miter;stroke-opacity:1"
       x="377.64328"
       y="620.26526"
       id="text4152"
       sodipodi:linespacing="125%"
       transform="scale(1.1268877,0.88739986)"><tspan
         sodipodi:role="line"
         id="tspan4154"
         x="377.64328"
         y="620.26526"><tspan
   style="font-style:normal;font-variant:normal;font-weight:normal;font-stretch:condensed;font-family:'Agency FB';-inkscape-font-specification:'Agency FB Condensed';fill:#0000ee;fill-opacity:1"
   id="tspan4174">Hyper</tspan>octo</tspan></text>
  </g>
  <style
     id="style4182"
     type="text/css"><![CDATA[
	.st0{fill:#EF3E42;}
	.st1{fill:#FFFFFF;}
	.st2{fill:none;}
	.st3{fill-rule:evenodd;clip-rule:evenodd;fill:#FFFFFF;}
]]></style>
  <style
     id="style4211"
     type="text/css"><![CDATA[
	.st0{fill:#EF3E42;}
	.st1{fill:#FFFFFF;}
	.st2{fill:none;}
	.st3{fill-rule:evenodd;clip-rule:evenodd;fill:#FFFFFF;}
]]></style>
</svg>
